M48
; DRILL file {KiCad 9.0.2} date 2026-06-10T17:29:34-0400
; FORMAT={-:-/ absolute / metric / decimal}
; #@! TF.CreationDate,2026-06-10T17:29:34-04:00
; #@! TF.GenerationSoftware,Kicad,Pcbnew,9.0.2
; #@! TF.FileFunction,Plated,1,2,PTH
FMAT,2
METRIC
; #@! TA.AperFunction,Plated,PTH,ViaDrill
T1C0.300
; #@! TA.AperFunction,Plated,PTH,ComponentDrill
T2C0.889
; #@! TA.AperFunction,Plated,PTH,ComponentDrill
T3C0.900
; #@! TA.AperFunction,Plated,PTH,ComponentDrill
T4C1.000
; #@! TA.AperFunction,Plated,PTH,ComponentDrill
T5C1.500
; #@! TA.AperFunction,Plated,PTH,ComponentDrill
T6C3.200
%
G90
G05
T1
X125.05Y-129.94
X148.8Y-98.25
X164.65Y-100.65
T2
X129.59Y-107.78
X129.59Y-123.02
X132.13Y-107.78
X132.13Y-123.02
X134.67Y-107.78
X134.67Y-123.02
X137.21Y-107.78
X137.21Y-123.02
X139.75Y-107.78
X139.75Y-123.02
X142.29Y-107.78
X142.29Y-123.02
X144.83Y-107.78
X144.83Y-123.02
T3
X160.05Y-137.0
X162.05Y-137.0
X164.05Y-137.0
T4
X124.78Y-97.28
X127.32Y-97.28
X129.86Y-97.28
X134.0Y-137.65
X137.8Y-137.6
X138.325Y-97.155
X138.38Y-79.93
X140.865Y-97.155
X141.55Y-137.65
X143.405Y-97.155
X144.78Y-79.93
X145.4Y-137.75
X149.5Y-136.035
X149.5Y-138.575
X151.18Y-79.93
X152.025Y-97.205
X153.9Y-136.035
X153.9Y-138.575
X154.565Y-97.205
X157.105Y-97.205
X157.78Y-80.33
X163.38Y-80.13
X164.5Y-88.33
X165.38Y-105.45
X165.38Y-107.99
X165.38Y-110.53
X165.38Y-113.07
X165.38Y-115.61
X165.38Y-118.15
X165.38Y-120.69
X165.38Y-123.23
X165.38Y-125.77
X165.38Y-128.31
X166.28Y-99.3
X167.04Y-88.33
X168.82Y-99.3
X169.58Y-88.33
X171.36Y-99.3
X172.12Y-88.33
X173.9Y-99.3
X174.66Y-88.33
X177.2Y-88.33
T5
X157.95Y-137.0
X166.15Y-137.0
T6
X125.08Y-80.08
X125.08Y-134.92
X174.92Y-80.08
X174.92Y-134.92
M30
