%TF.GenerationSoftware,KiCad,Pcbnew,9.0.2*%
%TF.CreationDate,2026-06-10T17:29:41-04:00*%
%TF.ProjectId,FoodSpoilDetection,466f6f64-5370-46f6-996c-446574656374,rev?*%
%TF.SameCoordinates,Original*%
%TF.FileFunction,Soldermask,Bot*%
%TF.FilePolarity,Negative*%
%FSLAX46Y46*%
G04 Gerber Fmt 4.6, Leading zero omitted, Abs format (unit mm)*
G04 Created by KiCad (PCBNEW 9.0.2) date 2026-06-10 17:29:41*
%MOMM*%
%LPD*%
G01*
G04 APERTURE LIST*
%ADD10C,1.700000*%
%ADD11R,1.700000X1.700000*%
%ADD12C,3.600000*%
%ADD13C,6.400000*%
%ADD14C,2.000000*%
%ADD15O,2.200000X3.500000*%
%ADD16R,1.500000X2.500000*%
%ADD17O,1.500000X2.500000*%
%ADD18C,1.524000*%
G04 APERTURE END LIST*
D10*
%TO.C,J2*%
X166280000Y-99300000D03*
X168820000Y-99300000D03*
X171360000Y-99300000D03*
D11*
X173900000Y-99300000D03*
%TD*%
D12*
%TO.C,H3*%
X125080000Y-134920000D03*
D13*
X125080000Y-134920000D03*
%TD*%
D14*
%TO.C,A1*%
X144780000Y-79930000D03*
%TD*%
%TO.C,SDA1*%
X137800000Y-137600000D03*
%TD*%
D11*
%TO.C,J4*%
X143405000Y-97155000D03*
D10*
X140865000Y-97155000D03*
X138325000Y-97155000D03*
%TD*%
D11*
%TO.C,J5*%
X165380000Y-128310000D03*
D10*
X165380000Y-125770000D03*
X165380000Y-123230000D03*
X165380000Y-120690000D03*
X165380000Y-118150000D03*
X165380000Y-115610000D03*
X165380000Y-113070000D03*
X165380000Y-110530000D03*
X165380000Y-107990000D03*
X165380000Y-105450000D03*
%TD*%
D14*
%TO.C,3v1*%
X138380000Y-79930000D03*
%TD*%
D12*
%TO.C,H1*%
X125080000Y-80080000D03*
D13*
X125080000Y-80080000D03*
%TD*%
D11*
%TO.C,J8*%
X153900000Y-136035000D03*
D10*
X153900000Y-138575000D03*
%TD*%
D11*
%TO.C,J6*%
X157105000Y-97205000D03*
D10*
X154565000Y-97205000D03*
X152025000Y-97205000D03*
%TD*%
D14*
%TO.C,SCL1*%
X134000000Y-137650000D03*
%TD*%
%TO.C,A2*%
X151180000Y-79930000D03*
%TD*%
D11*
%TO.C,J7*%
X149500000Y-138575000D03*
D10*
X149500000Y-136035000D03*
%TD*%
D15*
%TO.C,SW1*%
X157950000Y-137000000D03*
X166150000Y-137000000D03*
D16*
X160050000Y-137000000D03*
D17*
X162050000Y-137000000D03*
X164050000Y-137000000D03*
%TD*%
D14*
%TO.C,A3*%
X163380000Y-80130000D03*
%TD*%
D12*
%TO.C,H2*%
X174920000Y-80080000D03*
D13*
X174920000Y-80080000D03*
%TD*%
D12*
%TO.C,H4*%
X174920000Y-134920000D03*
D13*
X174920000Y-134920000D03*
%TD*%
D18*
%TO.C,U1*%
X129590000Y-123020000D03*
X132130000Y-123020000D03*
X134670000Y-123020000D03*
X137210000Y-123020000D03*
X139750000Y-123020000D03*
X142290000Y-123020000D03*
X144830000Y-123020000D03*
X144830000Y-107780000D03*
X142290000Y-107780000D03*
X139750000Y-107780000D03*
X137210000Y-107780000D03*
X134670000Y-107780000D03*
X132130000Y-107780000D03*
X129590000Y-107780000D03*
%TD*%
D14*
%TO.C,GND1*%
X157780000Y-80330000D03*
%TD*%
%TO.C,BATTERY+1*%
X141550000Y-137650000D03*
%TD*%
D11*
%TO.C,J1*%
X129860000Y-97280000D03*
D10*
X127320000Y-97280000D03*
X124780000Y-97280000D03*
%TD*%
D14*
%TO.C,BAT_SW1*%
X145400000Y-137750000D03*
%TD*%
D11*
%TO.C,J3*%
X177200000Y-88330000D03*
D10*
X174660000Y-88330000D03*
X172120000Y-88330000D03*
X169580000Y-88330000D03*
X167040000Y-88330000D03*
X164500000Y-88330000D03*
%TD*%
M02*
