M48
; DRILL file {KiCad 9.0.7} date 2026-06-09T12:45:14-0400
; FORMAT={-:-/ absolute / metric / decimal}
; #@! TF.CreationDate,2026-06-09T12:45:14-04:00
; #@! TF.GenerationSoftware,Kicad,Pcbnew,9.0.7
; #@! TF.FileFunction,Plated,1,2,PTH
FMAT,2
METRIC
; #@! TA.AperFunction,Plated,PTH,ViaDrill
T1C0.300
; #@! TA.AperFunction,Plated,PTH,ComponentDrill
T2C0.889
; #@! TA.AperFunction,Plated,PTH,ComponentDrill
T3C1.000
; #@! TA.AperFunction,Plated,PTH,ComponentDrill
T4C3.200
%
G90
G05
T1
X129.07Y-123.61
X160.075Y-103.204
X162.65Y-97.3
X163.35Y-110.5
T2
X133.61Y-101.45
X133.61Y-116.69
X136.15Y-101.45
X136.15Y-116.69
X138.69Y-101.45
X138.69Y-116.69
X141.23Y-101.45
X141.23Y-116.69
X143.77Y-101.45
X143.77Y-116.69
X146.31Y-101.45
X146.31Y-116.69
X148.85Y-101.45
X148.85Y-116.69
T3
X128.8Y-90.95
X131.34Y-90.95
X133.88Y-90.95
X142.345Y-90.825
X142.4Y-73.6
X143.6Y-130.2
X144.885Y-90.825
X147.425Y-90.825
X148.8Y-73.6
X150.2Y-130.4
X155.2Y-73.6
X156.045Y-90.875
X158.585Y-90.875
X161.125Y-90.875
X161.8Y-74.0
X167.4Y-73.8
X168.52Y-82.0
X169.4Y-99.12
X169.4Y-101.66
X169.4Y-104.2
X169.4Y-106.74
X169.4Y-109.28
X169.4Y-111.82
X169.4Y-114.36
X169.4Y-116.9
X169.4Y-119.44
X169.4Y-121.98
X171.06Y-82.0
X171.57Y-93.5
X173.6Y-82.0
X174.11Y-93.5
X176.14Y-82.0
X176.65Y-93.5
X178.68Y-82.0
X179.19Y-93.5
X181.22Y-82.0
T4
X128.778Y-130.175
X129.032Y-73.787
X178.054Y-73.67
X178.816Y-130.048
M30
