%TF.GenerationSoftware,KiCad,Pcbnew,9.0.2*%
%TF.CreationDate,2026-06-10T17:29:41-04:00*%
%TF.ProjectId,FoodSpoilDetection,466f6f64-5370-46f6-996c-446574656374,rev?*%
%TF.SameCoordinates,Original*%
%TF.FileFunction,Copper,L2,Bot*%
%TF.FilePolarity,Positive*%
%FSLAX46Y46*%
G04 Gerber Fmt 4.6, Leading zero omitted, Abs format (unit mm)*
G04 Created by KiCad (PCBNEW 9.0.2) date 2026-06-10 17:29:41*
%MOMM*%
%LPD*%
G01*
G04 APERTURE LIST*
%TA.AperFunction,ComponentPad*%
%ADD10C,1.700000*%
%TD*%
%TA.AperFunction,ComponentPad*%
%ADD11R,1.700000X1.700000*%
%TD*%
%TA.AperFunction,ComponentPad*%
%ADD12C,3.600000*%
%TD*%
%TA.AperFunction,ConnectorPad*%
%ADD13C,6.400000*%
%TD*%
%TA.AperFunction,ComponentPad*%
%ADD14C,2.000000*%
%TD*%
%TA.AperFunction,ComponentPad*%
%ADD15O,2.200000X3.500000*%
%TD*%
%TA.AperFunction,ComponentPad*%
%ADD16R,1.500000X2.500000*%
%TD*%
%TA.AperFunction,ComponentPad*%
%ADD17O,1.500000X2.500000*%
%TD*%
%TA.AperFunction,ComponentPad*%
%ADD18C,1.524000*%
%TD*%
%TA.AperFunction,ViaPad*%
%ADD19C,0.600000*%
%TD*%
%TA.AperFunction,Conductor*%
%ADD20C,0.200000*%
%TD*%
G04 APERTURE END LIST*
D10*
%TO.P,J2,4,Pin_4*%
%TO.N,SDA*%
X166280000Y-99300000D03*
%TO.P,J2,3,Pin_3*%
%TO.N,SCL*%
X168820000Y-99300000D03*
%TO.P,J2,2,Pin_2*%
%TO.N,GND*%
X171360000Y-99300000D03*
D11*
%TO.P,J2,1,Pin_1*%
%TO.N,Net-(J2-Pin_1)*%
X173900000Y-99300000D03*
%TD*%
D12*
%TO.P,H3,1,1*%
%TO.N,GND*%
X125080000Y-134920000D03*
D13*
X125080000Y-134920000D03*
%TD*%
D14*
%TO.P,A1,1,1*%
%TO.N,/A1*%
X144780000Y-79930000D03*
%TD*%
%TO.P,SDA1,1,1*%
%TO.N,SDA*%
X137800000Y-137600000D03*
%TD*%
D11*
%TO.P,J4,1,Pin_1*%
%TO.N,/A2*%
X143405000Y-97155000D03*
D10*
%TO.P,J4,2,Pin_2*%
%TO.N,Net-(J1-Pin_2)*%
X140865000Y-97155000D03*
%TO.P,J4,3,Pin_3*%
%TO.N,GND*%
X138325000Y-97155000D03*
%TD*%
D11*
%TO.P,J5,1,Pin_1*%
%TO.N,3v3*%
X165380000Y-128310000D03*
D10*
%TO.P,J5,2,Pin_2*%
%TO.N,GND*%
X165380000Y-125770000D03*
%TO.P,J5,3,Pin_3*%
%TO.N,SCL*%
X165380000Y-123230000D03*
%TO.P,J5,4,Pin_4*%
%TO.N,SDA*%
X165380000Y-120690000D03*
%TO.P,J5,5,Pin_5*%
%TO.N,GND*%
X165380000Y-118150000D03*
%TO.P,J5,6,Pin_6*%
%TO.N,unconnected-(J5-Pin_6-Pad6)*%
X165380000Y-115610000D03*
%TO.P,J5,7,Pin_7*%
%TO.N,unconnected-(J5-Pin_7-Pad7)*%
X165380000Y-113070000D03*
%TO.P,J5,8,Pin_8*%
%TO.N,/A1*%
X165380000Y-110530000D03*
%TO.P,J5,9,Pin_9*%
%TO.N,/A2*%
X165380000Y-107990000D03*
%TO.P,J5,10,Pin_10*%
%TO.N,/A3*%
X165380000Y-105450000D03*
%TD*%
D14*
%TO.P,3v1,1,1*%
%TO.N,3v3*%
X138380000Y-79930000D03*
%TD*%
D12*
%TO.P,H1,1,1*%
%TO.N,GND*%
X125080000Y-80080000D03*
D13*
X125080000Y-80080000D03*
%TD*%
D11*
%TO.P,J8,1,Pin_1*%
%TO.N,/BAT_SW*%
X153900000Y-136035000D03*
D10*
%TO.P,J8,2,Pin_2*%
%TO.N,GND*%
X153900000Y-138575000D03*
%TD*%
D11*
%TO.P,J6,1,Pin_1*%
%TO.N,/A3*%
X157105000Y-97205000D03*
D10*
%TO.P,J6,2,Pin_2*%
%TO.N,Net-(J1-Pin_2)*%
X154565000Y-97205000D03*
%TO.P,J6,3,Pin_3*%
%TO.N,GND*%
X152025000Y-97205000D03*
%TD*%
D14*
%TO.P,SCL1,1,1*%
%TO.N,SCL*%
X134000000Y-137650000D03*
%TD*%
%TO.P,A2,1,1*%
%TO.N,/A2*%
X151180000Y-79930000D03*
%TD*%
D11*
%TO.P,J7,1,Pin_1*%
%TO.N,GND*%
X149500000Y-138575000D03*
D10*
%TO.P,J7,2,Pin_2*%
%TO.N,/BATTERY+*%
X149500000Y-136035000D03*
%TD*%
D15*
%TO.P,SW1,*%
%TO.N,*%
X157950000Y-137000000D03*
X166150000Y-137000000D03*
D16*
%TO.P,SW1,1,A*%
%TO.N,/BAT_SW*%
X160050000Y-137000000D03*
D17*
%TO.P,SW1,2,B*%
%TO.N,/BATTERY+*%
X162050000Y-137000000D03*
%TO.P,SW1,3,C*%
%TO.N,unconnected-(SW1-C-Pad3)*%
X164050000Y-137000000D03*
%TD*%
D14*
%TO.P,A3,1,1*%
%TO.N,/A3*%
X163380000Y-80130000D03*
%TD*%
D12*
%TO.P,H2,1,1*%
%TO.N,GND*%
X174920000Y-80080000D03*
D13*
X174920000Y-80080000D03*
%TD*%
D12*
%TO.P,H4,1,1*%
%TO.N,GND*%
X174920000Y-134920000D03*
D13*
X174920000Y-134920000D03*
%TD*%
D18*
%TO.P,U1,1,GPIO1_A0_D0*%
%TO.N,D0*%
X129590000Y-123020000D03*
%TO.P,U1,2,GPIO2_A1_D1*%
%TO.N,D1*%
X132130000Y-123020000D03*
%TO.P,U1,3,GPIO3_A2_D2*%
%TO.N,D2*%
X134670000Y-123020000D03*
%TO.P,U1,4,GPIO4_A3_D3*%
%TO.N,unconnected-(U1-GPIO4_A3_D3-Pad4)*%
X137210000Y-123020000D03*
%TO.P,U1,5,GPIO5_A4_D4_SDA*%
%TO.N,SDA*%
X139750000Y-123020000D03*
%TO.P,U1,6,GPIO6_A5_D5_SCL*%
%TO.N,SCL*%
X142290000Y-123020000D03*
%TO.P,U1,7,GPIO43_D6_TX*%
%TO.N,unconnected-(U1-GPIO43_D6_TX-Pad7)*%
X144830000Y-123020000D03*
%TO.P,U1,8,GPIO44_D7_RX*%
%TO.N,unconnected-(U1-GPIO44_D7_RX-Pad8)*%
X144830000Y-107780000D03*
%TO.P,U1,9,GPIO7_A8_D8_SCK*%
%TO.N,unconnected-(U1-GPIO7_A8_D8_SCK-Pad9)*%
X142290000Y-107780000D03*
%TO.P,U1,10,GPIO8_A9_D9_MISO*%
%TO.N,unconnected-(U1-GPIO8_A9_D9_MISO-Pad10)_1*%
X139750000Y-107780000D03*
%TO.P,U1,11,GPIO9_A10_D10_MOSI*%
%TO.N,unconnected-(U1-GPIO9_A10_D10_MOSI-Pad11)_1*%
X137210000Y-107780000D03*
%TO.P,U1,12,3V3*%
%TO.N,3v3*%
X134670000Y-107780000D03*
%TO.P,U1,13,GND*%
%TO.N,GND*%
X132130000Y-107780000D03*
%TO.P,U1,14,VBUS*%
%TO.N,unconnected-(U1-VBUS-Pad14)_1*%
X129590000Y-107780000D03*
%TD*%
D14*
%TO.P,GND1,1,1*%
%TO.N,GND*%
X157780000Y-80330000D03*
%TD*%
%TO.P,BATTERY+1,1,1*%
%TO.N,/BATTERY+*%
X141550000Y-137650000D03*
%TD*%
D11*
%TO.P,J1,1,Pin_1*%
%TO.N,/A1*%
X129860000Y-97280000D03*
D10*
%TO.P,J1,2,Pin_2*%
%TO.N,Net-(J1-Pin_2)*%
X127320000Y-97280000D03*
%TO.P,J1,3,Pin_3*%
%TO.N,GND*%
X124780000Y-97280000D03*
%TD*%
D14*
%TO.P,BAT_SW1,1,1*%
%TO.N,/BAT_SW*%
X145400000Y-137750000D03*
%TD*%
D11*
%TO.P,J3,1,Pin_1*%
%TO.N,unconnected-(J3-Pin_1-Pad1)*%
X177200000Y-88330000D03*
D10*
%TO.P,J3,2,Pin_2*%
%TO.N,unconnected-(J3-Pin_2-Pad2)*%
X174660000Y-88330000D03*
%TO.P,J3,3,Pin_3*%
%TO.N,unconnected-(J3-Pin_3-Pad3)*%
X172120000Y-88330000D03*
%TO.P,J3,4,Pin_4*%
%TO.N,unconnected-(J3-Pin_4-Pad4)*%
X169580000Y-88330000D03*
%TO.P,J3,5,Pin_5*%
%TO.N,unconnected-(J3-Pin_5-Pad5)*%
X167040000Y-88330000D03*
%TO.P,J3,6,Pin_6*%
%TO.N,unconnected-(J3-Pin_6-Pad6)*%
X164500000Y-88330000D03*
%TD*%
D19*
%TO.N,3v3*%
X148800000Y-98250000D03*
X164650000Y-100650000D03*
%TO.N,GND*%
X125050000Y-129940000D03*
%TD*%
D20*
%TO.N,GND*%
X171360000Y-100790000D02*
X171360000Y-99300000D01*
X171280000Y-101180000D02*
X171280000Y-100870000D01*
X171280000Y-101180000D02*
X168160000Y-104300000D01*
X171280000Y-100870000D02*
X171360000Y-100790000D01*
X168160000Y-104300000D02*
X160800000Y-104300000D01*
%TO.N,3v3*%
X164556000Y-98356000D02*
X164650000Y-98450000D01*
X164650000Y-98450000D02*
X164650000Y-100650000D01*
X148906000Y-98356000D02*
X164556000Y-98356000D01*
X148800000Y-98250000D02*
X148906000Y-98356000D01*
%TO.N,GND*%
X158600000Y-104300000D02*
X157650000Y-105250000D01*
X160800000Y-104300000D02*
X158600000Y-104300000D01*
X160800000Y-104300000D02*
X160650000Y-104300000D01*
%TO.N,/BAT_SW*%
X145726000Y-137424000D02*
X152511000Y-137424000D01*
X152511000Y-137424000D02*
X153900000Y-136035000D01*
%TO.N,/BATTERY+*%
X160098000Y-134548000D02*
X162050000Y-136500000D01*
X150987000Y-134548000D02*
X160098000Y-134548000D01*
X149500000Y-136035000D02*
X150987000Y-134548000D01*
%TO.N,GND*%
X164229000Y-124619000D02*
X165380000Y-125770000D01*
X164229000Y-120213240D02*
X164229000Y-124619000D01*
X164903240Y-119539000D02*
X164229000Y-120213240D01*
X168426100Y-119539000D02*
X164903240Y-119539000D01*
X169701000Y-136080313D02*
X169701000Y-120813900D01*
X166730313Y-139051000D02*
X169701000Y-136080313D01*
X154376000Y-139051000D02*
X166730313Y-139051000D01*
X169701000Y-120813900D02*
X168426100Y-119539000D01*
%TO.N,/BAT_SW*%
X160050000Y-135550000D02*
X160050000Y-137000000D01*
X159449000Y-134949000D02*
X160050000Y-135550000D01*
X154986000Y-134949000D02*
X159449000Y-134949000D01*
X153900000Y-136035000D02*
X154986000Y-134949000D01*
%TO.N,SCL*%
X168450000Y-132700000D02*
X168450000Y-126300000D01*
X138950000Y-132700000D02*
X168450000Y-132700000D01*
X168450000Y-126300000D02*
X165380000Y-123230000D01*
X134000000Y-137650000D02*
X138950000Y-132700000D01*
%TO.N,SDA*%
X169300000Y-120980000D02*
X169300000Y-133750000D01*
X165380000Y-120690000D02*
X169010000Y-120690000D01*
X169010000Y-120690000D02*
X169300000Y-120980000D01*
X141650000Y-133750000D02*
X169300000Y-133750000D01*
X137800000Y-137600000D02*
X141650000Y-133750000D01*
%TO.N,/BATTERY+*%
X143165000Y-136035000D02*
X149500000Y-136035000D01*
X141550000Y-137650000D02*
X143165000Y-136035000D01*
%TO.N,GND*%
X149500000Y-138575000D02*
X153900000Y-138575000D01*
%TO.N,/A1*%
X129880000Y-97280000D02*
X129880000Y-94830000D01*
X129880000Y-94830000D02*
X144780000Y-79930000D01*
%TO.N,GND*%
X132430000Y-103050000D02*
X138325000Y-97155000D01*
X164060000Y-116830000D02*
X165380000Y-118150000D01*
X132130000Y-103050000D02*
X132430000Y-103050000D01*
X122130000Y-82999000D02*
X122130000Y-133877000D01*
X156704000Y-86256000D02*
X136243000Y-106717000D01*
X171314000Y-77280000D02*
X127849000Y-77280000D01*
X133193000Y-106717000D02*
X136243000Y-106717000D01*
X124800000Y-97280000D02*
X132130000Y-104610000D01*
X152025000Y-97205000D02*
X145755000Y-97205000D01*
X162180000Y-116830000D02*
X164060000Y-116830000D01*
X157780000Y-80330000D02*
X157780000Y-85162900D01*
X127849000Y-77280000D02*
X125012000Y-80117000D01*
X132130000Y-103050000D02*
X132130000Y-107780000D01*
X145755000Y-97205000D02*
X144954000Y-98006000D01*
X156704000Y-86238900D02*
X156704000Y-86256000D01*
X165380000Y-125770000D02*
X162180000Y-122570000D01*
X162180000Y-122570000D02*
X162180000Y-116830000D01*
X132130000Y-104610000D02*
X132130000Y-107780000D01*
X174034000Y-80000000D02*
X178530000Y-84496000D01*
X122130000Y-133877000D02*
X124758000Y-136505000D01*
X174034000Y-80000000D02*
X171314000Y-77280000D01*
X178530000Y-132644000D02*
X174796000Y-136378000D01*
X125012000Y-80117000D02*
X122130000Y-82999000D01*
X178530000Y-84496000D02*
X178530000Y-132644000D01*
X133193000Y-106717000D02*
X132130000Y-107780000D01*
X157780000Y-85162900D02*
X156704000Y-86238900D01*
%TO.N,/A2*%
X143055000Y-88055000D02*
X151180000Y-79930000D01*
X143055000Y-97205000D02*
X143055000Y-88055000D01*
%TO.N,/A3*%
X163380000Y-80130000D02*
X157105000Y-86405000D01*
X157105000Y-86405000D02*
X157105000Y-97205000D01*
%TD*%
%TA.AperFunction,Conductor*%
%TO.N,GND*%
G36*
X163365135Y-99059437D02*
G01*
X163432170Y-99079133D01*
X163477916Y-99131944D01*
X163489113Y-99183410D01*
X163492580Y-114899916D01*
X163494630Y-124190006D01*
X163496214Y-131365973D01*
X163476544Y-131433016D01*
X163423750Y-131478783D01*
X163372214Y-131490000D01*
X120624500Y-131490000D01*
X120557461Y-131470315D01*
X120511706Y-131417511D01*
X120500500Y-131366000D01*
X120500500Y-122920639D01*
X128327500Y-122920639D01*
X128327500Y-123119360D01*
X128358587Y-123315637D01*
X128419993Y-123504629D01*
X128419994Y-123504632D01*
X128510213Y-123681694D01*
X128627019Y-123842464D01*
X128767536Y-123982981D01*
X128928306Y-124099787D01*
X129015149Y-124144035D01*
X129105367Y-124190005D01*
X129105370Y-124190006D01*
X129199866Y-124220709D01*
X129294364Y-124251413D01*
X129490639Y-124282500D01*
X129490640Y-124282500D01*
X129689360Y-124282500D01*
X129689361Y-124282500D01*
X129885636Y-124251413D01*
X130074632Y-124190005D01*
X130251694Y-124099787D01*
X130412464Y-123982981D01*
X130552981Y-123842464D01*
X130669787Y-123681694D01*
X130749515Y-123525218D01*
X130797490Y-123474423D01*
X130865311Y-123457628D01*
X130931446Y-123480165D01*
X130970484Y-123525218D01*
X131050213Y-123681694D01*
X131167019Y-123842464D01*
X131307536Y-123982981D01*
X131468306Y-124099787D01*
X131555149Y-124144035D01*
X131645367Y-124190005D01*
X131645370Y-124190006D01*
X131739866Y-124220709D01*
X131834364Y-124251413D01*
X132030639Y-124282500D01*
X132030640Y-124282500D01*
X132229360Y-124282500D01*
X132229361Y-124282500D01*
X132425636Y-124251413D01*
X132614632Y-124190005D01*
X132791694Y-124099787D01*
X132952464Y-123982981D01*
X133092981Y-123842464D01*
X133209787Y-123681694D01*
X133289515Y-123525218D01*
X133337490Y-123474423D01*
X133405311Y-123457628D01*
X133471446Y-123480165D01*
X133510484Y-123525218D01*
X133590213Y-123681694D01*
X133707019Y-123842464D01*
X133847536Y-123982981D01*
X134008306Y-124099787D01*
X134095149Y-124144035D01*
X134185367Y-124190005D01*
X134185370Y-124190006D01*
X134279866Y-124220709D01*
X134374364Y-124251413D01*
X134570639Y-124282500D01*
X134570640Y-124282500D01*
X134769360Y-124282500D01*
X134769361Y-124282500D01*
X134965636Y-124251413D01*
X135154632Y-124190005D01*
X135331694Y-124099787D01*
X135492464Y-123982981D01*
X135632981Y-123842464D01*
X135749787Y-123681694D01*
X135829515Y-123525218D01*
X135877490Y-123474423D01*
X135945311Y-123457628D01*
X136011446Y-123480165D01*
X136050484Y-123525218D01*
X136130213Y-123681694D01*
X136247019Y-123842464D01*
X136387536Y-123982981D01*
X136548306Y-124099787D01*
X136635149Y-124144035D01*
X136725367Y-124190005D01*
X136725370Y-124190006D01*
X136819866Y-124220709D01*
X136914364Y-124251413D01*
X137110639Y-124282500D01*
X137110640Y-124282500D01*
X137309360Y-124282500D01*
X137309361Y-124282500D01*
X137505636Y-124251413D01*
X137694632Y-124190005D01*
X137871694Y-124099787D01*
X138032464Y-123982981D01*
X138172981Y-123842464D01*
X138289787Y-123681694D01*
X138369515Y-123525218D01*
X138417490Y-123474423D01*
X138485311Y-123457628D01*
X138551446Y-123480165D01*
X138590484Y-123525218D01*
X138670213Y-123681694D01*
X138787019Y-123842464D01*
X138927536Y-123982981D01*
X139088306Y-124099787D01*
X139175149Y-124144035D01*
X139265367Y-124190005D01*
X139265370Y-124190006D01*
X139359866Y-124220709D01*
X139454364Y-124251413D01*
X139650639Y-124282500D01*
X139650640Y-124282500D01*
X139849360Y-124282500D01*
X139849361Y-124282500D01*
X140045636Y-124251413D01*
X140234632Y-124190005D01*
X140411694Y-124099787D01*
X140572464Y-123982981D01*
X140712981Y-123842464D01*
X140829787Y-123681694D01*
X140909515Y-123525218D01*
X140957490Y-123474423D01*
X141025311Y-123457628D01*
X141091446Y-123480165D01*
X141130484Y-123525218D01*
X141210213Y-123681694D01*
X141327019Y-123842464D01*
X141467536Y-123982981D01*
X141628306Y-124099787D01*
X141715149Y-124144035D01*
X141805367Y-124190005D01*
X141805370Y-124190006D01*
X141899866Y-124220709D01*
X141994364Y-124251413D01*
X142190639Y-124282500D01*
X142190640Y-124282500D01*
X142389360Y-124282500D01*
X142389361Y-124282500D01*
X142585636Y-124251413D01*
X142774632Y-124190005D01*
X142951694Y-124099787D01*
X143112464Y-123982981D01*
X143252981Y-123842464D01*
X143369787Y-123681694D01*
X143449515Y-123525218D01*
X143497490Y-123474423D01*
X143565311Y-123457628D01*
X143631446Y-123480165D01*
X143670484Y-123525218D01*
X143750213Y-123681694D01*
X143867019Y-123842464D01*
X144007536Y-123982981D01*
X144168306Y-124099787D01*
X144255149Y-124144035D01*
X144345367Y-124190005D01*
X144345370Y-124190006D01*
X144439866Y-124220709D01*
X144534364Y-124251413D01*
X144730639Y-124282500D01*
X144730640Y-124282500D01*
X144929360Y-124282500D01*
X144929361Y-124282500D01*
X145125636Y-124251413D01*
X145314632Y-124190005D01*
X145491694Y-124099787D01*
X145652464Y-123982981D01*
X145792981Y-123842464D01*
X145909787Y-123681694D01*
X146000005Y-123504632D01*
X146061413Y-123315636D01*
X146092500Y-123119361D01*
X146092500Y-122920639D01*
X146061413Y-122724364D01*
X146000005Y-122535368D01*
X146000005Y-122535367D01*
X145909786Y-122358305D01*
X145792981Y-122197536D01*
X145652464Y-122057019D01*
X145491694Y-121940213D01*
X145314632Y-121849994D01*
X145314629Y-121849993D01*
X145125637Y-121788587D01*
X145027498Y-121773043D01*
X144929361Y-121757500D01*
X144730639Y-121757500D01*
X144665214Y-121767862D01*
X144534362Y-121788587D01*
X144345370Y-121849993D01*
X144345367Y-121849994D01*
X144168305Y-121940213D01*
X144007533Y-122057021D01*
X143867021Y-122197533D01*
X143750213Y-122358305D01*
X143670485Y-122514780D01*
X143622510Y-122565576D01*
X143554689Y-122582371D01*
X143488554Y-122559833D01*
X143449515Y-122514780D01*
X143369786Y-122358305D01*
X143252981Y-122197536D01*
X143112464Y-122057019D01*
X142951694Y-121940213D01*
X142774632Y-121849994D01*
X142774629Y-121849993D01*
X142585637Y-121788587D01*
X142487498Y-121773043D01*
X142389361Y-121757500D01*
X142190639Y-121757500D01*
X142125214Y-121767862D01*
X141994362Y-121788587D01*
X141805370Y-121849993D01*
X141805367Y-121849994D01*
X141628305Y-121940213D01*
X141467533Y-122057021D01*
X141327021Y-122197533D01*
X141210213Y-122358305D01*
X141130485Y-122514780D01*
X141082510Y-122565576D01*
X141014689Y-122582371D01*
X140948554Y-122559833D01*
X140909515Y-122514780D01*
X140829786Y-122358305D01*
X140712981Y-122197536D01*
X140572464Y-122057019D01*
X140411694Y-121940213D01*
X140234632Y-121849994D01*
X140234629Y-121849993D01*
X140045637Y-121788587D01*
X139947498Y-121773043D01*
X139849361Y-121757500D01*
X139650639Y-121757500D01*
X139585214Y-121767862D01*
X139454362Y-121788587D01*
X139265370Y-121849993D01*
X139265367Y-121849994D01*
X139088305Y-121940213D01*
X138927533Y-122057021D01*
X138787021Y-122197533D01*
X138670213Y-122358305D01*
X138590485Y-122514780D01*
X138542510Y-122565576D01*
X138474689Y-122582371D01*
X138408554Y-122559833D01*
X138369515Y-122514780D01*
X138289786Y-122358305D01*
X138172981Y-122197536D01*
X138032464Y-122057019D01*
X137871694Y-121940213D01*
X137694632Y-121849994D01*
X137694629Y-121849993D01*
X137505637Y-121788587D01*
X137407498Y-121773043D01*
X137309361Y-121757500D01*
X137110639Y-121757500D01*
X137045214Y-121767862D01*
X136914362Y-121788587D01*
X136725370Y-121849993D01*
X136725367Y-121849994D01*
X136548305Y-121940213D01*
X136387533Y-122057021D01*
X136247021Y-122197533D01*
X136130213Y-122358305D01*
X136050485Y-122514780D01*
X136002510Y-122565576D01*
X135934689Y-122582371D01*
X135868554Y-122559833D01*
X135829515Y-122514780D01*
X135749786Y-122358305D01*
X135632981Y-122197536D01*
X135492464Y-122057019D01*
X135331694Y-121940213D01*
X135154632Y-121849994D01*
X135154629Y-121849993D01*
X134965637Y-121788587D01*
X134867498Y-121773043D01*
X134769361Y-121757500D01*
X134570639Y-121757500D01*
X134505214Y-121767862D01*
X134374362Y-121788587D01*
X134185370Y-121849993D01*
X134185367Y-121849994D01*
X134008305Y-121940213D01*
X133847533Y-122057021D01*
X133707021Y-122197533D01*
X133590213Y-122358305D01*
X133510485Y-122514780D01*
X133462510Y-122565576D01*
X133394689Y-122582371D01*
X133328554Y-122559833D01*
X133289515Y-122514780D01*
X133209786Y-122358305D01*
X133092981Y-122197536D01*
X132952464Y-122057019D01*
X132791694Y-121940213D01*
X132614632Y-121849994D01*
X132614629Y-121849993D01*
X132425637Y-121788587D01*
X132327498Y-121773043D01*
X132229361Y-121757500D01*
X132030639Y-121757500D01*
X131965214Y-121767862D01*
X131834362Y-121788587D01*
X131645370Y-121849993D01*
X131645367Y-121849994D01*
X131468305Y-121940213D01*
X131307533Y-122057021D01*
X131167021Y-122197533D01*
X131050213Y-122358305D01*
X130970485Y-122514780D01*
X130922510Y-122565576D01*
X130854689Y-122582371D01*
X130788554Y-122559833D01*
X130749515Y-122514780D01*
X130669786Y-122358305D01*
X130552981Y-122197536D01*
X130412464Y-122057019D01*
X130251694Y-121940213D01*
X130074632Y-121849994D01*
X130074629Y-121849993D01*
X129885637Y-121788587D01*
X129787498Y-121773043D01*
X129689361Y-121757500D01*
X129490639Y-121757500D01*
X129425214Y-121767862D01*
X129294362Y-121788587D01*
X129105370Y-121849993D01*
X129105367Y-121849994D01*
X128928305Y-121940213D01*
X128767533Y-122057021D01*
X128627021Y-122197533D01*
X128510213Y-122358305D01*
X128419994Y-122535367D01*
X128419993Y-122535370D01*
X128358587Y-122724362D01*
X128327500Y-122920639D01*
X120500500Y-122920639D01*
X120500500Y-107680639D01*
X128327500Y-107680639D01*
X128327500Y-107879360D01*
X128358587Y-108075637D01*
X128419993Y-108264629D01*
X128419994Y-108264632D01*
X128510074Y-108441422D01*
X128510213Y-108441694D01*
X128627019Y-108602464D01*
X128767536Y-108742981D01*
X128928306Y-108859787D01*
X129015149Y-108904035D01*
X129105367Y-108950005D01*
X129105370Y-108950006D01*
X129199866Y-108980709D01*
X129294364Y-109011413D01*
X129490639Y-109042500D01*
X129490640Y-109042500D01*
X129689360Y-109042500D01*
X129689361Y-109042500D01*
X129885636Y-109011413D01*
X130074632Y-108950005D01*
X130251694Y-108859787D01*
X130412464Y-108742981D01*
X130552981Y-108602464D01*
X130669787Y-108441694D01*
X130749796Y-108284667D01*
X130797769Y-108233872D01*
X130865590Y-108217077D01*
X130931725Y-108239614D01*
X130970765Y-108284668D01*
X131050641Y-108441432D01*
X131077730Y-108478715D01*
X131077731Y-108478716D01*
X131692352Y-107864094D01*
X131715792Y-107951571D01*
X131774311Y-108052930D01*
X131857070Y-108135689D01*
X131958429Y-108194208D01*
X132045905Y-108217647D01*
X131431283Y-108832268D01*
X131431283Y-108832269D01*
X131468567Y-108859358D01*
X131645562Y-108949542D01*
X131834477Y-109010924D01*
X132030679Y-109042000D01*
X132229321Y-109042000D01*
X132425520Y-109010924D01*
X132425523Y-109010924D01*
X132614437Y-108949542D01*
X132791425Y-108859362D01*
X132828716Y-108832268D01*
X132214095Y-108217647D01*
X132301571Y-108194208D01*
X132402930Y-108135689D01*
X132485689Y-108052930D01*
X132544208Y-107951571D01*
X132567647Y-107864094D01*
X133182268Y-108478715D01*
X133209364Y-108441422D01*
X133289234Y-108284669D01*
X133337208Y-108233872D01*
X133405029Y-108217077D01*
X133471164Y-108239614D01*
X133510203Y-108284667D01*
X133590213Y-108441694D01*
X133707019Y-108602464D01*
X133847536Y-108742981D01*
X134008306Y-108859787D01*
X134095149Y-108904035D01*
X134185367Y-108950005D01*
X134185370Y-108950006D01*
X134279866Y-108980709D01*
X134374364Y-109011413D01*
X134570639Y-109042500D01*
X134570640Y-109042500D01*
X134769360Y-109042500D01*
X134769361Y-109042500D01*
X134965636Y-109011413D01*
X135154632Y-108950005D01*
X135331694Y-108859787D01*
X135492464Y-108742981D01*
X135632981Y-108602464D01*
X135749787Y-108441694D01*
X135829515Y-108285218D01*
X135877490Y-108234423D01*
X135945311Y-108217628D01*
X136011446Y-108240165D01*
X136050484Y-108285218D01*
X136130213Y-108441694D01*
X136247019Y-108602464D01*
X136387536Y-108742981D01*
X136548306Y-108859787D01*
X136635149Y-108904035D01*
X136725367Y-108950005D01*
X136725370Y-108950006D01*
X136819866Y-108980709D01*
X136914364Y-109011413D01*
X137110639Y-109042500D01*
X137110640Y-109042500D01*
X137309360Y-109042500D01*
X137309361Y-109042500D01*
X137505636Y-109011413D01*
X137694632Y-108950005D01*
X137871694Y-108859787D01*
X138032464Y-108742981D01*
X138172981Y-108602464D01*
X138289787Y-108441694D01*
X138369515Y-108285218D01*
X138417490Y-108234423D01*
X138485311Y-108217628D01*
X138551446Y-108240165D01*
X138590484Y-108285218D01*
X138670213Y-108441694D01*
X138787019Y-108602464D01*
X138927536Y-108742981D01*
X139088306Y-108859787D01*
X139175149Y-108904035D01*
X139265367Y-108950005D01*
X139265370Y-108950006D01*
X139359866Y-108980709D01*
X139454364Y-109011413D01*
X139650639Y-109042500D01*
X139650640Y-109042500D01*
X139849360Y-109042500D01*
X139849361Y-109042500D01*
X140045636Y-109011413D01*
X140234632Y-108950005D01*
X140411694Y-108859787D01*
X140572464Y-108742981D01*
X140712981Y-108602464D01*
X140829787Y-108441694D01*
X140909515Y-108285218D01*
X140957490Y-108234423D01*
X141025311Y-108217628D01*
X141091446Y-108240165D01*
X141130484Y-108285218D01*
X141210213Y-108441694D01*
X141327019Y-108602464D01*
X141467536Y-108742981D01*
X141628306Y-108859787D01*
X141715149Y-108904035D01*
X141805367Y-108950005D01*
X141805370Y-108950006D01*
X141899866Y-108980709D01*
X141994364Y-109011413D01*
X142190639Y-109042500D01*
X142190640Y-109042500D01*
X142389360Y-109042500D01*
X142389361Y-109042500D01*
X142585636Y-109011413D01*
X142774632Y-108950005D01*
X142951694Y-108859787D01*
X143112464Y-108742981D01*
X143252981Y-108602464D01*
X143369787Y-108441694D01*
X143449515Y-108285218D01*
X143497490Y-108234423D01*
X143565311Y-108217628D01*
X143631446Y-108240165D01*
X143670484Y-108285218D01*
X143750213Y-108441694D01*
X143867019Y-108602464D01*
X144007536Y-108742981D01*
X144168306Y-108859787D01*
X144255149Y-108904035D01*
X144345367Y-108950005D01*
X144345370Y-108950006D01*
X144439866Y-108980709D01*
X144534364Y-109011413D01*
X144730639Y-109042500D01*
X144730640Y-109042500D01*
X144929360Y-109042500D01*
X144929361Y-109042500D01*
X145125636Y-109011413D01*
X145314632Y-108950005D01*
X145491694Y-108859787D01*
X145652464Y-108742981D01*
X145792981Y-108602464D01*
X145909787Y-108441694D01*
X146000005Y-108264632D01*
X146061413Y-108075636D01*
X146092500Y-107879361D01*
X146092500Y-107680639D01*
X146061413Y-107484364D01*
X146000005Y-107295368D01*
X146000005Y-107295367D01*
X145954035Y-107205149D01*
X145909787Y-107118306D01*
X145792981Y-106957536D01*
X145652464Y-106817019D01*
X145491694Y-106700213D01*
X145314632Y-106609994D01*
X145314629Y-106609993D01*
X145125637Y-106548587D01*
X145027498Y-106533043D01*
X144929361Y-106517500D01*
X144730639Y-106517500D01*
X144665214Y-106527862D01*
X144534362Y-106548587D01*
X144345370Y-106609993D01*
X144345367Y-106609994D01*
X144168305Y-106700213D01*
X144007533Y-106817021D01*
X143867021Y-106957533D01*
X143750213Y-107118305D01*
X143670485Y-107274780D01*
X143622510Y-107325576D01*
X143554689Y-107342371D01*
X143488554Y-107319833D01*
X143449515Y-107274780D01*
X143430179Y-107236832D01*
X143369787Y-107118306D01*
X143252981Y-106957536D01*
X143112464Y-106817019D01*
X142951694Y-106700213D01*
X142774632Y-106609994D01*
X142774629Y-106609993D01*
X142585637Y-106548587D01*
X142487498Y-106533043D01*
X142389361Y-106517500D01*
X142190639Y-106517500D01*
X142125214Y-106527862D01*
X141994362Y-106548587D01*
X141805370Y-106609993D01*
X141805367Y-106609994D01*
X141628305Y-106700213D01*
X141467533Y-106817021D01*
X141327021Y-106957533D01*
X141210213Y-107118305D01*
X141130485Y-107274780D01*
X141082510Y-107325576D01*
X141014689Y-107342371D01*
X140948554Y-107319833D01*
X140909515Y-107274780D01*
X140890179Y-107236832D01*
X140829787Y-107118306D01*
X140712981Y-106957536D01*
X140572464Y-106817019D01*
X140411694Y-106700213D01*
X140234632Y-106609994D01*
X140234629Y-106609993D01*
X140045637Y-106548587D01*
X139947498Y-106533043D01*
X139849361Y-106517500D01*
X139650639Y-106517500D01*
X139585214Y-106527862D01*
X139454362Y-106548587D01*
X139265370Y-106609993D01*
X139265367Y-106609994D01*
X139088305Y-106700213D01*
X138927533Y-106817021D01*
X138787021Y-106957533D01*
X138670213Y-107118305D01*
X138590485Y-107274780D01*
X138542510Y-107325576D01*
X138474689Y-107342371D01*
X138408554Y-107319833D01*
X138369515Y-107274780D01*
X138350179Y-107236832D01*
X138289787Y-107118306D01*
X138172981Y-106957536D01*
X138032464Y-106817019D01*
X137871694Y-106700213D01*
X137694632Y-106609994D01*
X137694629Y-106609993D01*
X137505637Y-106548587D01*
X137407498Y-106533043D01*
X137309361Y-106517500D01*
X137110639Y-106517500D01*
X137045214Y-106527862D01*
X136914362Y-106548587D01*
X136725370Y-106609993D01*
X136725367Y-106609994D01*
X136548305Y-106700213D01*
X136387533Y-106817021D01*
X136247021Y-106957533D01*
X136130213Y-107118305D01*
X136050485Y-107274780D01*
X136002510Y-107325576D01*
X135934689Y-107342371D01*
X135868554Y-107319833D01*
X135829515Y-107274780D01*
X135810179Y-107236832D01*
X135749787Y-107118306D01*
X135632981Y-106957536D01*
X135492464Y-106817019D01*
X135331694Y-106700213D01*
X135154632Y-106609994D01*
X135154629Y-106609993D01*
X134965637Y-106548587D01*
X134867498Y-106533043D01*
X134769361Y-106517500D01*
X134570639Y-106517500D01*
X134505214Y-106527862D01*
X134374362Y-106548587D01*
X134185370Y-106609993D01*
X134185367Y-106609994D01*
X134008305Y-106700213D01*
X133847533Y-106817021D01*
X133707021Y-106957533D01*
X133590213Y-107118305D01*
X133510204Y-107275331D01*
X133462229Y-107326127D01*
X133394408Y-107342922D01*
X133328273Y-107320384D01*
X133289234Y-107275331D01*
X133209358Y-107118567D01*
X133182268Y-107081283D01*
X132567647Y-107695904D01*
X132544208Y-107608429D01*
X132485689Y-107507070D01*
X132402930Y-107424311D01*
X132301571Y-107365792D01*
X132214094Y-107342352D01*
X132828716Y-106727731D01*
X132828715Y-106727730D01*
X132791432Y-106700641D01*
X132614437Y-106610457D01*
X132425522Y-106549075D01*
X132229321Y-106518000D01*
X132030679Y-106518000D01*
X131834479Y-106549075D01*
X131834476Y-106549075D01*
X131645562Y-106610457D01*
X131468564Y-106700643D01*
X131431283Y-106727729D01*
X131431282Y-106727730D01*
X132045906Y-107342352D01*
X131958429Y-107365792D01*
X131857070Y-107424311D01*
X131774311Y-107507070D01*
X131715792Y-107608429D01*
X131692352Y-107695905D01*
X131077730Y-107081282D01*
X131077729Y-107081283D01*
X131050641Y-107118566D01*
X130970764Y-107275332D01*
X130922790Y-107326127D01*
X130854969Y-107342922D01*
X130788834Y-107320384D01*
X130749796Y-107275332D01*
X130669787Y-107118306D01*
X130552981Y-106957536D01*
X130412464Y-106817019D01*
X130251694Y-106700213D01*
X130074632Y-106609994D01*
X130074629Y-106609993D01*
X129885637Y-106548587D01*
X129787498Y-106533043D01*
X129689361Y-106517500D01*
X129490639Y-106517500D01*
X129425214Y-106527862D01*
X129294362Y-106548587D01*
X129105370Y-106609993D01*
X129105367Y-106609994D01*
X128928305Y-106700213D01*
X128767533Y-106817021D01*
X128627021Y-106957533D01*
X128510213Y-107118305D01*
X128419994Y-107295367D01*
X128419993Y-107295370D01*
X128358587Y-107484362D01*
X128327500Y-107680639D01*
X120500500Y-107680639D01*
X120500500Y-99176311D01*
X120520185Y-99109272D01*
X120572989Y-99063517D01*
X120624515Y-99052312D01*
X163365135Y-99059437D01*
G37*
%TD.AperFunction*%
%TD*%
M02*
