%TF.GenerationSoftware,KiCad,Pcbnew,9.0.7*%
%TF.CreationDate,2026-06-09T12:45:09-04:00*%
%TF.ProjectId,FoodSpoilDetection,466f6f64-5370-46f6-996c-446574656374,rev?*%
%TF.SameCoordinates,Original*%
%TF.FileFunction,Soldermask,Top*%
%TF.FilePolarity,Negative*%
%FSLAX46Y46*%
G04 Gerber Fmt 4.6, Leading zero omitted, Abs format (unit mm)*
G04 Created by KiCad (PCBNEW 9.0.7) date 2026-06-09 12:45:09*
%MOMM*%
%LPD*%
G01*
G04 APERTURE LIST*
G04 Aperture macros list*
%AMRoundRect*
0 Rectangle with rounded corners*
0 $1 Rounding radius*
0 $2 $3 $4 $5 $6 $7 $8 $9 X,Y pos of 4 corners*
0 Add a 4 corners polygon primitive as box body*
4,1,4,$2,$3,$4,$5,$6,$7,$8,$9,$2,$3,0*
0 Add four circle primitives for the rounded corners*
1,1,$1+$1,$2,$3*
1,1,$1+$1,$4,$5*
1,1,$1+$1,$6,$7*
1,1,$1+$1,$8,$9*
0 Add four rect primitives between the rounded corners*
20,1,$1+$1,$2,$3,$4,$5,0*
20,1,$1+$1,$4,$5,$6,$7,0*
20,1,$1+$1,$6,$7,$8,$9,0*
20,1,$1+$1,$8,$9,$2,$3,0*%
G04 Aperture macros list end*
%ADD10RoundRect,0.237500X-0.250000X-0.237500X0.250000X-0.237500X0.250000X0.237500X-0.250000X0.237500X0*%
%ADD11RoundRect,0.237500X0.237500X-0.250000X0.237500X0.250000X-0.237500X0.250000X-0.237500X-0.250000X0*%
%ADD12RoundRect,0.150000X-0.587500X-0.150000X0.587500X-0.150000X0.587500X0.150000X-0.587500X0.150000X0*%
%ADD13RoundRect,0.218750X-0.218750X-0.256250X0.218750X-0.256250X0.218750X0.256250X-0.218750X0.256250X0*%
%ADD14RoundRect,0.218750X0.026517X-0.335876X0.335876X-0.026517X-0.026517X0.335876X-0.335876X0.026517X0*%
%ADD15C,3.600000*%
%ADD16C,6.400000*%
%ADD17RoundRect,0.218750X0.256250X-0.218750X0.256250X0.218750X-0.256250X0.218750X-0.256250X-0.218750X0*%
%ADD18C,2.000000*%
%ADD19R,1.700000X1.700000*%
%ADD20C,1.700000*%
%ADD21C,3.000000*%
%ADD22RoundRect,0.218750X0.218750X0.256250X-0.218750X0.256250X-0.218750X-0.256250X0.218750X-0.256250X0*%
%ADD23RoundRect,0.237500X0.250000X0.237500X-0.250000X0.237500X-0.250000X-0.237500X0.250000X-0.237500X0*%
%ADD24RoundRect,0.218750X-0.335876X-0.026517X-0.026517X-0.335876X0.335876X0.026517X0.026517X0.335876X0*%
%ADD25RoundRect,0.237500X-0.008839X-0.344715X0.344715X0.008839X0.008839X0.344715X-0.344715X-0.008839X0*%
%ADD26RoundRect,0.150000X0.150000X-0.587500X0.150000X0.587500X-0.150000X0.587500X-0.150000X-0.587500X0*%
%ADD27RoundRect,0.237500X-0.344715X0.008839X0.008839X-0.344715X0.344715X-0.008839X-0.008839X0.344715X0*%
%ADD28RoundRect,0.218750X0.335876X0.026517X0.026517X0.335876X-0.335876X-0.026517X-0.026517X-0.335876X0*%
%ADD29RoundRect,0.152400X-0.609600X1.063600X-0.609600X-1.063600X0.609600X-1.063600X0.609600X1.063600X0*%
%ADD30C,1.524000*%
%ADD31RoundRect,0.152400X0.609600X-1.063600X0.609600X1.063600X-0.609600X1.063600X-0.609600X-1.063600X0*%
%ADD32RoundRect,0.237500X0.344715X-0.008839X-0.008839X0.344715X-0.344715X0.008839X0.008839X-0.344715X0*%
G04 APERTURE END LIST*
D10*
%TO.C,R10*%
X140375000Y-122000000D03*
X142200000Y-122000000D03*
%TD*%
D11*
%TO.C,R2*%
X155450000Y-110125000D03*
X155450000Y-108300000D03*
%TD*%
D12*
%TO.C,Q3*%
X158075000Y-96900000D03*
X158075000Y-98800000D03*
X159950000Y-97850000D03*
%TD*%
D11*
%TO.C,R6*%
X127300000Y-115700000D03*
X127300000Y-113875000D03*
%TD*%
D13*
%TO.C,D8*%
X140225000Y-123650000D03*
X141800000Y-123650000D03*
%TD*%
D14*
%TO.C,D5*%
X128843153Y-99756847D03*
X129956847Y-98643153D03*
%TD*%
D15*
%TO.C,H3*%
X128778000Y-130175000D03*
D16*
X128778000Y-130175000D03*
%TD*%
D17*
%TO.C,D6*%
X126100000Y-109937500D03*
X126100000Y-108362500D03*
%TD*%
D18*
%TO.C,A1*%
X148800000Y-73600000D03*
%TD*%
D19*
%TO.C,J3*%
X181220000Y-82000000D03*
D20*
X178680000Y-82000000D03*
X176140000Y-82000000D03*
X173600000Y-82000000D03*
X171060000Y-82000000D03*
X168520000Y-82000000D03*
%TD*%
D21*
%TO.C,FID3*%
X173101000Y-131840000D03*
%TD*%
D18*
%TO.C,SDA1*%
X150200000Y-130400000D03*
%TD*%
D22*
%TO.C,D4*%
X142047592Y-94200000D03*
X140472592Y-94200000D03*
%TD*%
D19*
%TO.C,J4*%
X147425000Y-90825000D03*
D20*
X144885000Y-90825000D03*
X142345000Y-90825000D03*
%TD*%
D12*
%TO.C,Q1*%
X162200000Y-101300000D03*
X162200000Y-103200000D03*
X164075000Y-102250000D03*
%TD*%
D19*
%TO.C,J5*%
X169400000Y-121980000D03*
D20*
X169400000Y-119440000D03*
X169400000Y-116900000D03*
X169400000Y-114360000D03*
X169400000Y-111820000D03*
X169400000Y-109280000D03*
X169400000Y-106740000D03*
X169400000Y-104200000D03*
X169400000Y-101660000D03*
X169400000Y-99120000D03*
%TD*%
D23*
%TO.C,R9*%
X126950000Y-117800000D03*
X125125000Y-117800000D03*
%TD*%
D18*
%TO.C,3v3*%
X142400000Y-73600000D03*
%TD*%
D24*
%TO.C,D3*%
X152393153Y-98993153D03*
X153506847Y-100106847D03*
%TD*%
D15*
%TO.C,H1*%
X129032000Y-73787000D03*
D16*
X129032000Y-73787000D03*
%TD*%
D25*
%TO.C,R5*%
X127554765Y-98695235D03*
X128845235Y-97404765D03*
%TD*%
D10*
%TO.C,R7*%
X162012500Y-105100000D03*
X163837500Y-105100000D03*
%TD*%
D19*
%TO.C,J6*%
X161125000Y-90875000D03*
D20*
X158585000Y-90875000D03*
X156045000Y-90875000D03*
%TD*%
D23*
%TO.C,R4*%
X142262500Y-95749999D03*
X140437500Y-95750001D03*
%TD*%
D14*
%TO.C,D1*%
X152343153Y-121106847D03*
X153456847Y-119993153D03*
%TD*%
D19*
%TO.C,J2*%
X179190000Y-93500000D03*
D20*
X176650000Y-93500000D03*
X174110000Y-93500000D03*
X171570000Y-93500000D03*
%TD*%
D26*
%TO.C,Q2*%
X125450000Y-123650000D03*
X127350000Y-123650000D03*
X126400000Y-121775000D03*
%TD*%
D18*
%TO.C,SCL1*%
X143600000Y-130200000D03*
%TD*%
%TO.C,A2*%
X155200000Y-73600000D03*
%TD*%
D27*
%TO.C,R3*%
X153854765Y-98104765D03*
X155145235Y-99395235D03*
%TD*%
D21*
%TO.C,FID2*%
X134360000Y-71270000D03*
%TD*%
D18*
%TO.C,A3*%
X167400000Y-73800000D03*
%TD*%
D28*
%TO.C,D7*%
X130556847Y-121456847D03*
X129443153Y-120343153D03*
%TD*%
D15*
%TO.C,H2*%
X178054000Y-73670000D03*
D16*
X178054000Y-73670000D03*
%TD*%
D15*
%TO.C,H4*%
X178816000Y-130048000D03*
D16*
X178816000Y-130048000D03*
%TD*%
D21*
%TO.C,FID1*%
X134100000Y-131730000D03*
%TD*%
D17*
%TO.C,D2*%
X157050000Y-109887500D03*
X157050000Y-108312500D03*
%TD*%
D29*
%TO.C,U1*%
X133610000Y-117525000D03*
D30*
X133610000Y-116690000D03*
D29*
X136150000Y-117525000D03*
D30*
X136150000Y-116690000D03*
D29*
X138690000Y-117525000D03*
D30*
X138690000Y-116690000D03*
D29*
X141230000Y-117525000D03*
D30*
X141230000Y-116690000D03*
D29*
X143770000Y-117525000D03*
D30*
X143770000Y-116690000D03*
D29*
X146310000Y-117525000D03*
D30*
X146310000Y-116690000D03*
D29*
X148850000Y-117525000D03*
D30*
X148850000Y-116690000D03*
X148850000Y-101450000D03*
D31*
X148850000Y-100615000D03*
D30*
X146310000Y-101450000D03*
D31*
X146310000Y-100615000D03*
D30*
X143770000Y-101450000D03*
D31*
X143770000Y-100615000D03*
D30*
X141230000Y-101450000D03*
D31*
X141230000Y-100615000D03*
D30*
X138690000Y-101450000D03*
D31*
X138690000Y-100615000D03*
D30*
X136150000Y-101450000D03*
D31*
X136150000Y-100615000D03*
D30*
X133610000Y-101450000D03*
D31*
X133610000Y-100615000D03*
%TD*%
D32*
%TO.C,R8*%
X132645235Y-120945235D03*
X131354765Y-119654765D03*
%TD*%
D18*
%TO.C,GND1*%
X161800000Y-74000000D03*
%TD*%
D10*
%TO.C,R11*%
X157525000Y-94250000D03*
X159350000Y-94250000D03*
%TD*%
D25*
%TO.C,R1*%
X151004765Y-120145235D03*
X152295235Y-118854765D03*
%TD*%
D19*
%TO.C,J1*%
X133880000Y-90950000D03*
D20*
X131340000Y-90950000D03*
X128800000Y-90950000D03*
%TD*%
M02*
