%TF.GenerationSoftware,KiCad,Pcbnew,9.0.2*%
%TF.CreationDate,2026-06-10T17:29:41-04:00*%
%TF.ProjectId,FoodSpoilDetection,466f6f64-5370-46f6-996c-446574656374,rev?*%
%TF.SameCoordinates,Original*%
%TF.FileFunction,Copper,L1,Top*%
%TF.FilePolarity,Positive*%
%FSLAX46Y46*%
G04 Gerber Fmt 4.6, Leading zero omitted, Abs format (unit mm)*
G04 Created by KiCad (PCBNEW 9.0.2) date 2026-06-10 17:29:41*
%MOMM*%
%LPD*%
G01*
G04 APERTURE LIST*
G04 Aperture macros list*
%AMRoundRect*
0 Rectangle with rounded corners*
0 $1 Rounding radius*
0 $2 $3 $4 $5 $6 $7 $8 $9 X,Y pos of 4 corners*
0 Add a 4 corners polygon primitive as box body*
4,1,4,$2,$3,$4,$5,$6,$7,$8,$9,$2,$3,0*
0 Add four circle primitives for the rounded corners*
1,1,$1+$1,$2,$3*
1,1,$1+$1,$4,$5*
1,1,$1+$1,$6,$7*
1,1,$1+$1,$8,$9*
0 Add four rect primitives between the rounded corners*
20,1,$1+$1,$2,$3,$4,$5,0*
20,1,$1+$1,$4,$5,$6,$7,0*
20,1,$1+$1,$6,$7,$8,$9,0*
20,1,$1+$1,$8,$9,$2,$3,0*%
G04 Aperture macros list end*
%TA.AperFunction,ComponentPad*%
%ADD10C,1.700000*%
%TD*%
%TA.AperFunction,ComponentPad*%
%ADD11R,1.700000X1.700000*%
%TD*%
%TA.AperFunction,SMDPad,CuDef*%
%ADD12RoundRect,0.237500X-0.250000X-0.237500X0.250000X-0.237500X0.250000X0.237500X-0.250000X0.237500X0*%
%TD*%
%TA.AperFunction,SMDPad,CuDef*%
%ADD13RoundRect,0.237500X0.237500X-0.250000X0.237500X0.250000X-0.237500X0.250000X-0.237500X-0.250000X0*%
%TD*%
%TA.AperFunction,SMDPad,CuDef*%
%ADD14R,0.558800X1.320800*%
%TD*%
%TA.AperFunction,SMDPad,CuDef*%
%ADD15RoundRect,0.218750X-0.218750X-0.256250X0.218750X-0.256250X0.218750X0.256250X-0.218750X0.256250X0*%
%TD*%
%TA.AperFunction,SMDPad,CuDef*%
%ADD16RoundRect,0.218750X0.026517X-0.335876X0.335876X-0.026517X-0.026517X0.335876X-0.335876X0.026517X0*%
%TD*%
%TA.AperFunction,ComponentPad*%
%ADD17C,3.600000*%
%TD*%
%TA.AperFunction,ConnectorPad*%
%ADD18C,6.400000*%
%TD*%
%TA.AperFunction,SMDPad,CuDef*%
%ADD19RoundRect,0.218750X0.256250X-0.218750X0.256250X0.218750X-0.256250X0.218750X-0.256250X-0.218750X0*%
%TD*%
%TA.AperFunction,ComponentPad*%
%ADD20C,2.000000*%
%TD*%
%TA.AperFunction,SMDPad,CuDef*%
%ADD21C,1.500000*%
%TD*%
%TA.AperFunction,SMDPad,CuDef*%
%ADD22RoundRect,0.218750X0.218750X0.256250X-0.218750X0.256250X-0.218750X-0.256250X0.218750X-0.256250X0*%
%TD*%
%TA.AperFunction,SMDPad,CuDef*%
%ADD23RoundRect,0.237500X0.250000X0.237500X-0.250000X0.237500X-0.250000X-0.237500X0.250000X-0.237500X0*%
%TD*%
%TA.AperFunction,SMDPad,CuDef*%
%ADD24RoundRect,0.218750X-0.335876X-0.026517X-0.026517X-0.335876X0.335876X0.026517X0.026517X0.335876X0*%
%TD*%
%TA.AperFunction,SMDPad,CuDef*%
%ADD25RoundRect,0.237500X-0.008839X-0.344715X0.344715X0.008839X0.008839X0.344715X-0.344715X-0.008839X0*%
%TD*%
%TA.AperFunction,SMDPad,CuDef*%
%ADD26RoundRect,0.150000X0.150000X-0.587500X0.150000X0.587500X-0.150000X0.587500X-0.150000X-0.587500X0*%
%TD*%
%TA.AperFunction,SMDPad,CuDef*%
%ADD27RoundRect,0.237500X-0.344715X0.008839X0.008839X-0.344715X0.344715X-0.008839X-0.008839X0.344715X0*%
%TD*%
%TA.AperFunction,ComponentPad*%
%ADD28O,2.200000X3.500000*%
%TD*%
%TA.AperFunction,ComponentPad*%
%ADD29R,1.500000X2.500000*%
%TD*%
%TA.AperFunction,ComponentPad*%
%ADD30O,1.500000X2.500000*%
%TD*%
%TA.AperFunction,SMDPad,CuDef*%
%ADD31RoundRect,0.218750X0.335876X0.026517X0.026517X0.335876X-0.335876X-0.026517X-0.026517X-0.335876X0*%
%TD*%
%TA.AperFunction,SMDPad,CuDef*%
%ADD32RoundRect,0.152400X-0.609600X1.063600X-0.609600X-1.063600X0.609600X-1.063600X0.609600X1.063600X0*%
%TD*%
%TA.AperFunction,ComponentPad*%
%ADD33C,1.524000*%
%TD*%
%TA.AperFunction,SMDPad,CuDef*%
%ADD34RoundRect,0.152400X0.609600X-1.063600X0.609600X1.063600X-0.609600X1.063600X-0.609600X-1.063600X0*%
%TD*%
%TA.AperFunction,SMDPad,CuDef*%
%ADD35RoundRect,0.237500X0.344715X-0.008839X-0.008839X0.344715X-0.344715X0.008839X0.008839X-0.344715X0*%
%TD*%
%TA.AperFunction,ViaPad*%
%ADD36C,0.600000*%
%TD*%
%TA.AperFunction,Conductor*%
%ADD37C,0.200000*%
%TD*%
G04 APERTURE END LIST*
D10*
%TO.P,J2,4,Pin_4*%
%TO.N,SDA*%
X166280000Y-99300000D03*
%TO.P,J2,3,Pin_3*%
%TO.N,SCL*%
X168820000Y-99300000D03*
%TO.P,J2,2,Pin_2*%
%TO.N,GND*%
X171360000Y-99300000D03*
D11*
%TO.P,J2,1,Pin_1*%
%TO.N,Net-(J2-Pin_1)*%
X173900000Y-99300000D03*
%TD*%
D12*
%TO.P,R10,1*%
%TO.N,Net-(D8-A)*%
X136355000Y-128330000D03*
%TO.P,R10,2*%
%TO.N,3v3*%
X138180000Y-128330000D03*
%TD*%
D13*
%TO.P,R2,1*%
%TO.N,Net-(D2-A)*%
X151430000Y-116455000D03*
%TO.P,R2,2*%
%TO.N,3v3*%
X151430000Y-114630000D03*
%TD*%
D14*
%TO.P,Q3,1,G*%
%TO.N,D1*%
X154040000Y-105373800D03*
%TO.P,Q3,2,S*%
%TO.N,3v3*%
X155945000Y-105373800D03*
%TO.P,Q3,3,D*%
%TO.N,Net-(J1-Pin_2)*%
X154992500Y-102986200D03*
%TD*%
D13*
%TO.P,R6,1*%
%TO.N,Net-(D6-A)*%
X123280000Y-122030000D03*
%TO.P,R6,2*%
%TO.N,3v3*%
X123280000Y-120205000D03*
%TD*%
D15*
%TO.P,D8,1,K*%
%TO.N,Net-(D1-K)*%
X136205000Y-129980000D03*
%TO.P,D8,2,A*%
%TO.N,Net-(D8-A)*%
X137780000Y-129980000D03*
%TD*%
D16*
%TO.P,D5,1,K*%
%TO.N,Net-(D1-K)*%
X124823153Y-106086847D03*
%TO.P,D5,2,A*%
%TO.N,Net-(D5-A)*%
X125936847Y-104973153D03*
%TD*%
D17*
%TO.P,H3,1,1*%
%TO.N,GND*%
X125080000Y-134920000D03*
D18*
X125080000Y-134920000D03*
%TD*%
D19*
%TO.P,D6,1,K*%
%TO.N,Net-(D1-K)*%
X122080000Y-116267500D03*
%TO.P,D6,2,A*%
%TO.N,Net-(D6-A)*%
X122080000Y-114692500D03*
%TD*%
D20*
%TO.P,A1,1,1*%
%TO.N,/A1*%
X144780000Y-79930000D03*
%TD*%
D21*
%TO.P,FID3,*%
%TO.N,*%
X169840000Y-137460000D03*
%TD*%
D20*
%TO.P,SDA1,1,1*%
%TO.N,SDA*%
X137800000Y-137600000D03*
%TD*%
D22*
%TO.P,D4,1,K*%
%TO.N,Net-(D1-K)*%
X138027592Y-100530000D03*
%TO.P,D4,2,A*%
%TO.N,Net-(D4-A)*%
X136452592Y-100530000D03*
%TD*%
D11*
%TO.P,J4,1,Pin_1*%
%TO.N,/A2*%
X143405000Y-97155000D03*
D10*
%TO.P,J4,2,Pin_2*%
%TO.N,Net-(J1-Pin_2)*%
X140865000Y-97155000D03*
%TO.P,J4,3,Pin_3*%
%TO.N,GND*%
X138325000Y-97155000D03*
%TD*%
D14*
%TO.P,Q1,1,G*%
%TO.N,D2*%
X158165000Y-109773800D03*
%TO.P,Q1,2,S*%
%TO.N,3v3*%
X160070000Y-109773800D03*
%TO.P,Q1,3,D*%
%TO.N,Net-(J2-Pin_1)*%
X159117500Y-107386200D03*
%TD*%
D11*
%TO.P,J5,1,Pin_1*%
%TO.N,3v3*%
X165380000Y-128310000D03*
D10*
%TO.P,J5,2,Pin_2*%
%TO.N,GND*%
X165380000Y-125770000D03*
%TO.P,J5,3,Pin_3*%
%TO.N,SCL*%
X165380000Y-123230000D03*
%TO.P,J5,4,Pin_4*%
%TO.N,SDA*%
X165380000Y-120690000D03*
%TO.P,J5,5,Pin_5*%
%TO.N,GND*%
X165380000Y-118150000D03*
%TO.P,J5,6,Pin_6*%
%TO.N,unconnected-(J5-Pin_6-Pad6)*%
X165380000Y-115610000D03*
%TO.P,J5,7,Pin_7*%
%TO.N,unconnected-(J5-Pin_7-Pad7)*%
X165380000Y-113070000D03*
%TO.P,J5,8,Pin_8*%
%TO.N,/A1*%
X165380000Y-110530000D03*
%TO.P,J5,9,Pin_9*%
%TO.N,/A2*%
X165380000Y-107990000D03*
%TO.P,J5,10,Pin_10*%
%TO.N,/A3*%
X165380000Y-105450000D03*
%TD*%
D23*
%TO.P,R9,1*%
%TO.N,D0*%
X122930000Y-124130000D03*
%TO.P,R9,2*%
%TO.N,Net-(Q2-G)*%
X121105000Y-124130000D03*
%TD*%
D20*
%TO.P,3v1,1,1*%
%TO.N,3v3*%
X138380000Y-79930000D03*
%TD*%
D24*
%TO.P,D3,1,K*%
%TO.N,Net-(D1-K)*%
X148373153Y-105323153D03*
%TO.P,D3,2,A*%
%TO.N,Net-(D3-A)*%
X149486847Y-106436847D03*
%TD*%
D17*
%TO.P,H1,1,1*%
%TO.N,GND*%
X125080000Y-80080000D03*
D18*
X125080000Y-80080000D03*
%TD*%
D25*
%TO.P,R5,1*%
%TO.N,Net-(D5-A)*%
X123534765Y-105025235D03*
%TO.P,R5,2*%
%TO.N,3v3*%
X124825235Y-103734765D03*
%TD*%
D12*
%TO.P,R7,1*%
%TO.N,3v3*%
X157987500Y-111850000D03*
%TO.P,R7,2*%
%TO.N,D2*%
X159812500Y-111850000D03*
%TD*%
D11*
%TO.P,J8,1,Pin_1*%
%TO.N,/BAT_SW*%
X153900000Y-136035000D03*
D10*
%TO.P,J8,2,Pin_2*%
%TO.N,GND*%
X153900000Y-138575000D03*
%TD*%
D11*
%TO.P,J6,1,Pin_1*%
%TO.N,/A3*%
X157105000Y-97205000D03*
D10*
%TO.P,J6,2,Pin_2*%
%TO.N,Net-(J1-Pin_2)*%
X154565000Y-97205000D03*
%TO.P,J6,3,Pin_3*%
%TO.N,GND*%
X152025000Y-97205000D03*
%TD*%
D23*
%TO.P,R4,1*%
%TO.N,Net-(D4-A)*%
X138242500Y-102079999D03*
%TO.P,R4,2*%
%TO.N,3v3*%
X136417500Y-102080001D03*
%TD*%
D16*
%TO.P,D1,1,K*%
%TO.N,Net-(D1-K)*%
X148323153Y-127436847D03*
%TO.P,D1,2,A*%
%TO.N,Net-(D1-A)*%
X149436847Y-126323153D03*
%TD*%
D26*
%TO.P,Q2,1,G*%
%TO.N,Net-(Q2-G)*%
X121430000Y-129980000D03*
%TO.P,Q2,2,S*%
%TO.N,GND*%
X123330000Y-129980000D03*
%TO.P,Q2,3,D*%
%TO.N,Net-(D1-K)*%
X122380000Y-128105000D03*
%TD*%
D20*
%TO.P,SCL1,1,1*%
%TO.N,SCL*%
X134000000Y-137650000D03*
%TD*%
%TO.P,A2,1,1*%
%TO.N,/A2*%
X151180000Y-79930000D03*
%TD*%
D11*
%TO.P,J7,1,Pin_1*%
%TO.N,GND*%
X149500000Y-138575000D03*
D10*
%TO.P,J7,2,Pin_2*%
%TO.N,/BATTERY+*%
X149500000Y-136035000D03*
%TD*%
D27*
%TO.P,R3,1*%
%TO.N,Net-(D3-A)*%
X149834765Y-104434765D03*
%TO.P,R3,2*%
%TO.N,3v3*%
X151125235Y-105725235D03*
%TD*%
D21*
%TO.P,FID2,*%
%TO.N,*%
X130160000Y-77540000D03*
%TD*%
D28*
%TO.P,SW1,*%
%TO.N,*%
X157950000Y-137000000D03*
X166150000Y-137000000D03*
D29*
%TO.P,SW1,1,A*%
%TO.N,/BAT_SW*%
X160050000Y-137000000D03*
D30*
%TO.P,SW1,2,B*%
%TO.N,/BATTERY+*%
X162050000Y-137000000D03*
%TO.P,SW1,3,C*%
%TO.N,unconnected-(SW1-C-Pad3)*%
X164050000Y-137000000D03*
%TD*%
D20*
%TO.P,A3,1,1*%
%TO.N,/A3*%
X163380000Y-80130000D03*
%TD*%
D31*
%TO.P,D7,1,K*%
%TO.N,Net-(D1-K)*%
X126536847Y-127786847D03*
%TO.P,D7,2,A*%
%TO.N,Net-(D7-A)*%
X125423153Y-126673153D03*
%TD*%
D17*
%TO.P,H2,1,1*%
%TO.N,GND*%
X174920000Y-80080000D03*
D18*
X174920000Y-80080000D03*
%TD*%
D17*
%TO.P,H4,1,1*%
%TO.N,GND*%
X174920000Y-134920000D03*
D18*
X174920000Y-134920000D03*
%TD*%
D21*
%TO.P,FID1,*%
%TO.N,*%
X130160000Y-137460000D03*
%TD*%
D19*
%TO.P,D2,1,K*%
%TO.N,Net-(D1-K)*%
X153030000Y-116217500D03*
%TO.P,D2,2,A*%
%TO.N,Net-(D2-A)*%
X153030000Y-114642500D03*
%TD*%
D32*
%TO.P,U1,1,GPIO1_A0_D0*%
%TO.N,D0*%
X129590000Y-123855000D03*
D33*
X129590000Y-123020000D03*
D32*
%TO.P,U1,2,GPIO2_A1_D1*%
%TO.N,D1*%
X132130000Y-123855000D03*
D33*
X132130000Y-123020000D03*
D32*
%TO.P,U1,3,GPIO3_A2_D2*%
%TO.N,D2*%
X134670000Y-123855000D03*
D33*
X134670000Y-123020000D03*
D32*
%TO.P,U1,4,GPIO4_A3_D3*%
%TO.N,unconnected-(U1-GPIO4_A3_D3-Pad4)_1*%
X137210000Y-123855000D03*
D33*
%TO.N,unconnected-(U1-GPIO4_A3_D3-Pad4)*%
X137210000Y-123020000D03*
D32*
%TO.P,U1,5,GPIO5_A4_D4_SDA*%
%TO.N,SDA*%
X139750000Y-123855000D03*
D33*
X139750000Y-123020000D03*
D32*
%TO.P,U1,6,GPIO6_A5_D5_SCL*%
%TO.N,SCL*%
X142290000Y-123855000D03*
D33*
X142290000Y-123020000D03*
D32*
%TO.P,U1,7,GPIO43_D6_TX*%
%TO.N,unconnected-(U1-GPIO43_D6_TX-Pad7)_1*%
X144830000Y-123855000D03*
D33*
%TO.N,unconnected-(U1-GPIO43_D6_TX-Pad7)*%
X144830000Y-123020000D03*
%TO.P,U1,8,GPIO44_D7_RX*%
%TO.N,unconnected-(U1-GPIO44_D7_RX-Pad8)*%
X144830000Y-107780000D03*
D34*
%TO.N,unconnected-(U1-GPIO44_D7_RX-Pad8)_1*%
X144830000Y-106945000D03*
D33*
%TO.P,U1,9,GPIO7_A8_D8_SCK*%
%TO.N,unconnected-(U1-GPIO7_A8_D8_SCK-Pad9)*%
X142290000Y-107780000D03*
D34*
%TO.N,unconnected-(U1-GPIO7_A8_D8_SCK-Pad9)_1*%
X142290000Y-106945000D03*
D33*
%TO.P,U1,10,GPIO8_A9_D9_MISO*%
%TO.N,unconnected-(U1-GPIO8_A9_D9_MISO-Pad10)_1*%
X139750000Y-107780000D03*
D34*
%TO.N,unconnected-(U1-GPIO8_A9_D9_MISO-Pad10)*%
X139750000Y-106945000D03*
D33*
%TO.P,U1,11,GPIO9_A10_D10_MOSI*%
%TO.N,unconnected-(U1-GPIO9_A10_D10_MOSI-Pad11)_1*%
X137210000Y-107780000D03*
D34*
%TO.N,unconnected-(U1-GPIO9_A10_D10_MOSI-Pad11)*%
X137210000Y-106945000D03*
D33*
%TO.P,U1,12,3V3*%
%TO.N,3v3*%
X134670000Y-107780000D03*
D34*
X134670000Y-106945000D03*
D33*
%TO.P,U1,13,GND*%
%TO.N,GND*%
X132130000Y-107780000D03*
D34*
X132130000Y-106945000D03*
D33*
%TO.P,U1,14,VBUS*%
%TO.N,unconnected-(U1-VBUS-Pad14)_1*%
X129590000Y-107780000D03*
D34*
%TO.N,unconnected-(U1-VBUS-Pad14)*%
X129590000Y-106945000D03*
%TD*%
D35*
%TO.P,R8,1*%
%TO.N,Net-(D7-A)*%
X128625235Y-127275235D03*
%TO.P,R8,2*%
%TO.N,3v3*%
X127334765Y-125984765D03*
%TD*%
D20*
%TO.P,GND1,1,1*%
%TO.N,GND*%
X157780000Y-80330000D03*
%TD*%
D12*
%TO.P,R11,1*%
%TO.N,3v3*%
X153505000Y-100580000D03*
%TO.P,R11,2*%
%TO.N,D1*%
X155330000Y-100580000D03*
%TD*%
D25*
%TO.P,R1,1*%
%TO.N,Net-(D1-A)*%
X146984765Y-126475235D03*
%TO.P,R1,2*%
%TO.N,3v3*%
X148275235Y-125184765D03*
%TD*%
D20*
%TO.P,BATTERY+1,1,1*%
%TO.N,/BATTERY+*%
X141550000Y-137650000D03*
%TD*%
D11*
%TO.P,J1,1,Pin_1*%
%TO.N,/A1*%
X129860000Y-97280000D03*
D10*
%TO.P,J1,2,Pin_2*%
%TO.N,Net-(J1-Pin_2)*%
X127320000Y-97280000D03*
%TO.P,J1,3,Pin_3*%
%TO.N,GND*%
X124780000Y-97280000D03*
%TD*%
D20*
%TO.P,BAT_SW1,1,1*%
%TO.N,/BAT_SW*%
X145400000Y-137750000D03*
%TD*%
D11*
%TO.P,J3,1,Pin_1*%
%TO.N,unconnected-(J3-Pin_1-Pad1)*%
X177200000Y-88330000D03*
D10*
%TO.P,J3,2,Pin_2*%
%TO.N,unconnected-(J3-Pin_2-Pad2)*%
X174660000Y-88330000D03*
%TO.P,J3,3,Pin_3*%
%TO.N,unconnected-(J3-Pin_3-Pad3)*%
X172120000Y-88330000D03*
%TO.P,J3,4,Pin_4*%
%TO.N,unconnected-(J3-Pin_4-Pad4)*%
X169580000Y-88330000D03*
%TO.P,J3,5,Pin_5*%
%TO.N,unconnected-(J3-Pin_5-Pad5)*%
X167040000Y-88330000D03*
%TO.P,J3,6,Pin_6*%
%TO.N,unconnected-(J3-Pin_6-Pad6)*%
X164500000Y-88330000D03*
%TD*%
D36*
%TO.N,3v3*%
X148800000Y-98250000D03*
X164650000Y-100650000D03*
%TO.N,GND*%
X125050000Y-129940000D03*
%TD*%
D37*
%TO.N,SCL*%
X168820000Y-100730000D02*
X168820000Y-99300000D01*
X168700000Y-100850000D02*
X168820000Y-100730000D01*
X168700000Y-101050000D02*
X168700000Y-100850000D01*
%TO.N,Net-(J2-Pin_1)*%
X173750000Y-97606000D02*
X173900000Y-97756000D01*
X173900000Y-97756000D02*
X173900000Y-99300000D01*
%TO.N,SDA*%
X166330000Y-102110660D02*
X166330000Y-99350000D01*
X161530000Y-106910660D02*
X166330000Y-102110660D01*
X161530000Y-112620000D02*
X161530000Y-106910660D01*
X139880000Y-120480000D02*
X153670000Y-120480000D01*
X139750000Y-120610000D02*
X139880000Y-120480000D01*
X139750000Y-123020000D02*
X139750000Y-120610000D01*
X153670000Y-120480000D02*
X161530000Y-112620000D01*
%TO.N,Net-(J2-Pin_1)*%
X163086900Y-97606000D02*
X173750000Y-97606000D01*
X159117500Y-101575400D02*
X163086900Y-97606000D01*
X159117500Y-107386200D02*
X159117500Y-101575400D01*
%TO.N,SCL*%
X143353000Y-121957000D02*
X142290000Y-123020000D01*
X152843000Y-121957000D02*
X143353000Y-121957000D01*
X164903240Y-104299000D02*
X164229000Y-104973240D01*
X164229000Y-105521000D02*
X161931000Y-107819000D01*
X165451000Y-104299000D02*
X164903240Y-104299000D01*
X168700000Y-101050000D02*
X165451000Y-104299000D01*
X161931000Y-112869000D02*
X152843000Y-121957000D01*
X164229000Y-104973240D02*
X164229000Y-105521000D01*
X161931000Y-107819000D02*
X161931000Y-112869000D01*
%TO.N,/A3*%
X175550000Y-105450000D02*
X165380000Y-105450000D01*
X174847000Y-97205000D02*
X176321000Y-98679000D01*
X176321000Y-104679000D02*
X175550000Y-105450000D01*
X157105000Y-97205000D02*
X174847000Y-97205000D01*
X176321000Y-98679000D02*
X176321000Y-104679000D01*
%TO.N,/A2*%
X173992900Y-107990000D02*
X165380000Y-107990000D01*
X176722000Y-105260900D02*
X173992900Y-107990000D01*
X174263100Y-96054000D02*
X176722000Y-98512900D01*
X144206000Y-96054000D02*
X174263100Y-96054000D01*
X143055000Y-97205000D02*
X144206000Y-96054000D01*
X176722000Y-98512900D02*
X176722000Y-105260900D01*
%TO.N,/A1*%
X177123000Y-105427000D02*
X172020000Y-110530000D01*
X177123000Y-98346800D02*
X177123000Y-105427000D01*
X174429200Y-95653000D02*
X177123000Y-98346800D01*
X172020000Y-110530000D02*
X165380000Y-110530000D01*
X129880000Y-97280000D02*
X131507000Y-95653000D01*
X131507000Y-95653000D02*
X174429200Y-95653000D01*
%TO.N,3v3*%
X148800000Y-98200000D02*
X148800000Y-98250000D01*
X151180000Y-100580000D02*
X148800000Y-98200000D01*
X153505000Y-100580000D02*
X151180000Y-100580000D01*
%TO.N,Net-(J1-Pin_2)*%
X141666000Y-97956000D02*
X140865000Y-97155000D01*
X141666000Y-97650000D02*
X141666000Y-97956000D01*
X142254000Y-97650000D02*
X141666000Y-97650000D01*
X142254000Y-98306000D02*
X142254000Y-97650000D01*
X144556000Y-98306000D02*
X142254000Y-98306000D01*
X144556000Y-97650000D02*
X144556000Y-98306000D01*
X150874000Y-97650000D02*
X144556000Y-97650000D01*
X152501760Y-98356000D02*
X151548240Y-98356000D01*
X150874000Y-97681760D02*
X150874000Y-97650000D01*
X151548240Y-98356000D02*
X150874000Y-97681760D01*
X153176000Y-97681760D02*
X152501760Y-98356000D01*
X154120000Y-97650000D02*
X153176000Y-97650000D01*
X153176000Y-97650000D02*
X153176000Y-97681760D01*
%TO.N,3v3*%
X160070000Y-105230000D02*
X164650000Y-100650000D01*
X160070000Y-109773800D02*
X160070000Y-105230000D01*
X155945000Y-105648800D02*
X160070000Y-109773800D01*
X149350000Y-107750000D02*
X149520000Y-107750000D01*
X144580000Y-102980000D02*
X149350000Y-107750000D01*
X137317499Y-102980000D02*
X144580000Y-102980000D01*
X149520000Y-107750000D02*
X151125235Y-106144765D01*
X136417500Y-102080001D02*
X137317499Y-102980000D01*
%TO.N,Net-(D1-K)*%
X152730000Y-115722100D02*
X152730000Y-115917500D01*
X153071100Y-115381000D02*
X152730000Y-115722100D01*
X153806000Y-114202400D02*
X153806000Y-115082600D01*
X153507600Y-113904000D02*
X153806000Y-114202400D01*
X152730000Y-113904000D02*
X153507600Y-113904000D01*
X152730000Y-113897100D02*
X152730000Y-113904000D01*
X152746100Y-113881000D02*
X152730000Y-113897100D01*
X153496100Y-113881000D02*
X152746100Y-113881000D01*
X153731000Y-113646100D02*
X153496100Y-113881000D01*
X152730000Y-112312900D02*
X153731000Y-113313900D01*
X152730000Y-107640835D02*
X152730000Y-112312900D01*
X152805935Y-107640835D02*
X152730000Y-107640835D01*
X153040835Y-107073735D02*
X153040835Y-107405935D01*
X152200000Y-106232900D02*
X153040835Y-107073735D01*
X152200000Y-106000000D02*
X152200000Y-106232900D01*
X152450000Y-105750000D02*
X152200000Y-106000000D01*
X152350000Y-105615578D02*
X152450000Y-105715578D01*
X153806000Y-115082600D02*
X153507600Y-115381000D01*
X152350000Y-105500000D02*
X152350000Y-105615578D01*
X150000000Y-103150000D02*
X152350000Y-105500000D01*
X153731000Y-113313900D02*
X153731000Y-113646100D01*
X152450000Y-105715578D02*
X152450000Y-105750000D01*
X149550000Y-103150000D02*
X150000000Y-103150000D01*
X153507600Y-115381000D02*
X153071100Y-115381000D01*
X148373153Y-105323153D02*
X148373153Y-104326847D01*
X153040835Y-107405935D02*
X152805935Y-107640835D01*
X148373153Y-104326847D02*
X149550000Y-103150000D01*
%TO.N,D2*%
X159812500Y-111850000D02*
X159812500Y-111421300D01*
%TO.N,D1*%
X135074900Y-119678000D02*
X151415134Y-119678000D01*
X134902900Y-119850000D02*
X135074900Y-119678000D01*
X132130000Y-121942370D02*
X134222370Y-119850000D01*
X132130000Y-123020000D02*
X132130000Y-121942370D01*
X134222370Y-119850000D02*
X134902900Y-119850000D01*
%TO.N,3v3*%
X157987500Y-112466100D02*
X157987500Y-111850000D01*
X157992500Y-112471100D02*
X157987500Y-112466100D01*
%TO.N,D2*%
X153271000Y-120079000D02*
X159817500Y-113532500D01*
X135241000Y-120079000D02*
X153271000Y-120079000D01*
X134670000Y-120650000D02*
X135241000Y-120079000D01*
X134670000Y-123020000D02*
X134670000Y-120650000D01*
%TO.N,3v3*%
X150962866Y-117243500D02*
X150654000Y-116934634D01*
X150654000Y-116934634D02*
X150654000Y-115406000D01*
X157992500Y-112471100D02*
X153220100Y-117243500D01*
X153220100Y-117243500D02*
X150962866Y-117243500D01*
X150654000Y-115406000D02*
X151430000Y-114630000D01*
%TO.N,Net-(J1-Pin_2)*%
X156250000Y-98890000D02*
X154565000Y-97205000D01*
X156250000Y-101728700D02*
X156250000Y-98890000D01*
X154992500Y-102986200D02*
X156250000Y-101728700D01*
%TO.N,D1*%
X154040000Y-101870000D02*
X155330000Y-100580000D01*
X154040000Y-105373800D02*
X154040000Y-101870000D01*
%TO.N,Net-(D2-A)*%
X153030000Y-114855000D02*
X151430000Y-116455000D01*
%TO.N,Net-(D3-A)*%
X149834765Y-104434765D02*
X149834765Y-106088929D01*
X149834765Y-106088929D02*
X149486847Y-106436847D01*
%TO.N,Net-(D4-A)*%
X136692501Y-100530000D02*
X138242500Y-102079999D01*
%TO.N,Net-(D5-A)*%
X123534765Y-105025235D02*
X125884765Y-105025235D01*
%TO.N,Net-(D6-A)*%
X123280000Y-122030000D02*
X122504000Y-121254000D01*
X122504000Y-117147100D02*
X122956000Y-116695100D01*
X122956000Y-115568500D02*
X122180000Y-114792500D01*
X122956000Y-116695100D02*
X122956000Y-115568500D01*
X122504000Y-121254000D02*
X122504000Y-117147100D01*
%TO.N,Net-(D7-A)*%
X125423153Y-126673153D02*
X126520583Y-126673153D01*
X127122665Y-127275235D02*
X128625235Y-127275235D01*
X126520583Y-126673153D02*
X127122665Y-127275235D01*
%TO.N,Net-(D8-A)*%
X137780000Y-129980000D02*
X136355000Y-128555000D01*
%TO.N,D0*%
X128480000Y-124130000D02*
X129590000Y-123020000D01*
X122930000Y-124130000D02*
X128480000Y-124130000D01*
%TO.N,SDA*%
X165380000Y-120690000D02*
X166531000Y-121841000D01*
X164229000Y-123706760D02*
X147863966Y-123706760D01*
X166531000Y-121841000D02*
X166531000Y-123706760D01*
X141875000Y-125980000D02*
X139750000Y-123855000D01*
X166531000Y-123706760D02*
X165856760Y-124381000D01*
X165856760Y-124381000D02*
X164903240Y-124381000D01*
X164903240Y-124381000D02*
X164229000Y-123706760D01*
X147863966Y-123706760D02*
X145590726Y-125980000D01*
X145590726Y-125980000D02*
X141875000Y-125980000D01*
%TO.N,SCL*%
X146380000Y-123230000D02*
X165380000Y-123230000D01*
X145463626Y-125540000D02*
X145893000Y-125110626D01*
X142290000Y-123855000D02*
X142290000Y-125540000D01*
X145893000Y-123717000D02*
X146380000Y-123230000D01*
X142290000Y-125540000D02*
X145463626Y-125540000D01*
X145893000Y-125110626D02*
X145893000Y-123717000D01*
%TO.N,Net-(D1-K)*%
X122080000Y-116267500D02*
X122080000Y-124535634D01*
X128730000Y-129980000D02*
X126536847Y-127786847D01*
X122080000Y-124535634D02*
X122380000Y-124835634D01*
X122380000Y-124835634D02*
X122380000Y-128105000D01*
X122030000Y-105080000D02*
X123036847Y-106086847D01*
X145004000Y-130756000D02*
X136981000Y-130756000D01*
X136205000Y-129980000D02*
X128730000Y-129980000D01*
X121280000Y-115355000D02*
X121280000Y-109630000D01*
X123036847Y-106086847D02*
X124823153Y-106086847D01*
X136981000Y-130756000D02*
X136205000Y-129980000D01*
X148323153Y-127436847D02*
X145004000Y-130756000D01*
X148373153Y-105323153D02*
X143530000Y-100480000D01*
X127356000Y-99754000D02*
X122030000Y-105080000D01*
X126536847Y-127786847D02*
X122698153Y-127786847D01*
X121280000Y-109630000D02*
X124823153Y-106086847D01*
X122180000Y-116255000D02*
X121280000Y-115355000D01*
X138027592Y-100530000D02*
X137251592Y-99754000D01*
X122698153Y-127786847D02*
X122380000Y-128105000D01*
X137251592Y-99754000D02*
X127356000Y-99754000D01*
X143530000Y-100480000D02*
X138077592Y-100480000D01*
%TO.N,Net-(D1-A)*%
X149436847Y-126323153D02*
X147136847Y-126323153D01*
%TO.N,3v3*%
X152278000Y-99353000D02*
X153505000Y-100580000D01*
X123730000Y-110030000D02*
X122930000Y-109230000D01*
X137143500Y-128530000D02*
X137980000Y-128530000D01*
X128834797Y-126387367D02*
X129513103Y-127065673D01*
X133193000Y-124893000D02*
X133193000Y-125110626D01*
X135566500Y-128530000D02*
X135566500Y-127862866D01*
X131067000Y-125110626D02*
X131067000Y-122387000D01*
X127334765Y-125984765D02*
X129778861Y-125984765D01*
X123280000Y-118230000D02*
X123280000Y-120205000D01*
X136834634Y-127554000D02*
X137143500Y-127862866D01*
X151430000Y-114630000D02*
X152580000Y-113480000D01*
X135002475Y-126702475D02*
X133193000Y-124893000D01*
X126779999Y-102080001D02*
X134676373Y-102080001D01*
X135875366Y-127554000D02*
X136834634Y-127554000D01*
X138380000Y-79930000D02*
X126169000Y-92141000D01*
X177524000Y-116166000D02*
X177524000Y-98180700D01*
X152190000Y-112340000D02*
X152190000Y-106790000D01*
X126169000Y-92141000D02*
X126169000Y-97030000D01*
X130653000Y-125110626D02*
X130653000Y-122579690D01*
X127780000Y-105180000D02*
X130730000Y-105180000D01*
X165380000Y-128310000D02*
X162533242Y-125463242D01*
X131067000Y-122387000D02*
X124080000Y-115400000D01*
X129513103Y-127065673D02*
X129513103Y-127502475D01*
X143130000Y-130330000D02*
X146096897Y-127363103D01*
X133220000Y-109230000D02*
X134670000Y-107780000D01*
X125980000Y-97219000D02*
X125980000Y-97980000D01*
X146899328Y-125463242D02*
X146096897Y-126265673D01*
X125742855Y-103734765D02*
X124825235Y-103734765D01*
X165380000Y-128310000D02*
X177524000Y-116166000D01*
X131328374Y-125372000D02*
X131067000Y-125110626D01*
X126747000Y-95252000D02*
X126169000Y-95830000D01*
X123730000Y-117780000D02*
X123730000Y-110030000D01*
X130653000Y-122579690D02*
X128278310Y-120205000D01*
X174595300Y-95252000D02*
X126747000Y-95252000D01*
X130730000Y-102080001D02*
X130730000Y-105180000D01*
X146096897Y-127363103D02*
X146096897Y-126490000D01*
X126169000Y-97030000D02*
X125980000Y-97219000D01*
X146096897Y-126265673D02*
X146096897Y-126490000D01*
X140180000Y-130330000D02*
X143130000Y-130330000D01*
X132931626Y-125372000D02*
X131328374Y-125372000D01*
X128067681Y-126717681D02*
X128397995Y-126387367D01*
X130730000Y-108330000D02*
X131630000Y-109230000D01*
X133193000Y-125110626D02*
X132931626Y-125372000D01*
X126169000Y-95830000D02*
X126169000Y-97030000D01*
X129513103Y-127502475D02*
X129182789Y-127832789D01*
X122930000Y-109230000D02*
X126980000Y-105180000D01*
X131630000Y-109230000D02*
X133220000Y-109230000D01*
X123280000Y-118230000D02*
X123730000Y-117780000D01*
X130730000Y-105180000D02*
X130730000Y-108330000D01*
X134676373Y-102080001D02*
X130730000Y-102080001D01*
X137143500Y-127862866D02*
X137143500Y-128530000D01*
X146096897Y-126490000D02*
X146096897Y-126702475D01*
X129182789Y-127832789D02*
X129880000Y-128530000D01*
X124080000Y-115400000D02*
X124080000Y-108880000D01*
X125125235Y-103734765D02*
X126779999Y-102080001D01*
X126980000Y-105180000D02*
X126980000Y-104971910D01*
X146096897Y-126702475D02*
X135002475Y-126702475D01*
X127353000Y-99353000D02*
X152278000Y-99353000D01*
X125980000Y-97980000D02*
X127353000Y-99353000D01*
X129880000Y-128530000D02*
X135566500Y-128530000D01*
X152580000Y-113480000D02*
X153330000Y-113480000D01*
X153330000Y-113480000D02*
X152190000Y-112340000D01*
X152190000Y-106790000D02*
X151125235Y-105725235D01*
X136417500Y-102080001D02*
X134676373Y-102080001D01*
X138180000Y-128330000D02*
X140180000Y-130330000D01*
X129778861Y-125984765D02*
X130653000Y-125110626D01*
X127334765Y-125984765D02*
X128067681Y-126717681D01*
X128397995Y-126387367D02*
X128834797Y-126387367D01*
X135566500Y-127862866D02*
X135875366Y-127554000D01*
X126980000Y-104971910D02*
X125742855Y-103734765D01*
X177524000Y-98180700D02*
X174595300Y-95252000D01*
X128278310Y-120205000D02*
X123280000Y-120205000D01*
X162533242Y-125463242D02*
X146899328Y-125463242D01*
X124080000Y-108880000D02*
X127780000Y-105180000D01*
%TO.N,GND*%
X123330000Y-129980000D02*
X125010000Y-129980000D01*
X125010000Y-129980000D02*
X125050000Y-129940000D01*
%TO.N,Net-(J1-Pin_2)*%
X139240000Y-98480000D02*
X128540000Y-98480000D01*
X140515000Y-97205000D02*
X139240000Y-98480000D01*
X128540000Y-98480000D02*
X127340000Y-97280000D01*
%TO.N,Net-(Q2-G)*%
X121080000Y-129630000D02*
X121080000Y-124155000D01*
X121430000Y-129980000D02*
X121080000Y-129630000D01*
%TO.N,D1*%
X154040000Y-107190600D02*
X154040000Y-105373800D01*
X157584600Y-110735200D02*
X154040000Y-107190600D01*
X158128334Y-110735200D02*
X157584600Y-110735200D01*
X151415134Y-119678000D02*
X158776000Y-112317134D01*
X158776000Y-111382866D02*
X158128334Y-110735200D01*
X158776000Y-112317134D02*
X158776000Y-111382866D01*
%TO.N,D2*%
X159812500Y-111421300D02*
X158165000Y-109773800D01*
X159817500Y-113532500D02*
X159817500Y-111430000D01*
%TD*%
M02*
