%TF.GenerationSoftware,KiCad,Pcbnew,9.0.7*%
%TF.CreationDate,2026-06-09T12:45:09-04:00*%
%TF.ProjectId,FoodSpoilDetection,466f6f64-5370-46f6-996c-446574656374,rev?*%
%TF.SameCoordinates,Original*%
%TF.FileFunction,Copper,L2,Bot*%
%TF.FilePolarity,Positive*%
%FSLAX46Y46*%
G04 Gerber Fmt 4.6, Leading zero omitted, Abs format (unit mm)*
G04 Created by KiCad (PCBNEW 9.0.7) date 2026-06-09 12:45:09*
%MOMM*%
%LPD*%
G01*
G04 APERTURE LIST*
%TA.AperFunction,ComponentPad*%
%ADD10C,3.600000*%
%TD*%
%TA.AperFunction,ConnectorPad*%
%ADD11C,6.400000*%
%TD*%
%TA.AperFunction,ComponentPad*%
%ADD12C,2.000000*%
%TD*%
%TA.AperFunction,ComponentPad*%
%ADD13R,1.700000X1.700000*%
%TD*%
%TA.AperFunction,ComponentPad*%
%ADD14C,1.700000*%
%TD*%
%TA.AperFunction,ComponentPad*%
%ADD15C,1.524000*%
%TD*%
%TA.AperFunction,ViaPad*%
%ADD16C,0.600000*%
%TD*%
%TA.AperFunction,Conductor*%
%ADD17C,0.200000*%
%TD*%
G04 APERTURE END LIST*
D10*
%TO.P,H3,1,1*%
%TO.N,GNDPWR*%
X128778000Y-130175000D03*
D11*
X128778000Y-130175000D03*
%TD*%
D12*
%TO.P,A1,1,1*%
%TO.N,/A1*%
X148800000Y-73600000D03*
%TD*%
D13*
%TO.P,J3,1,Pin_1*%
%TO.N,unconnected-(J3-Pin_1-Pad1)*%
X181220000Y-82000000D03*
D14*
%TO.P,J3,2,Pin_2*%
%TO.N,unconnected-(J3-Pin_2-Pad2)*%
X178680000Y-82000000D03*
%TO.P,J3,3,Pin_3*%
%TO.N,unconnected-(J3-Pin_3-Pad3)*%
X176140000Y-82000000D03*
%TO.P,J3,4,Pin_4*%
%TO.N,unconnected-(J3-Pin_4-Pad4)*%
X173600000Y-82000000D03*
%TO.P,J3,5,Pin_5*%
%TO.N,unconnected-(J3-Pin_5-Pad5)*%
X171060000Y-82000000D03*
%TO.P,J3,6,Pin_6*%
%TO.N,unconnected-(J3-Pin_6-Pad6)*%
X168520000Y-82000000D03*
%TD*%
D12*
%TO.P,SDA1,1,1*%
%TO.N,SDA*%
X150200000Y-130400000D03*
%TD*%
D13*
%TO.P,J4,1,Pin_1*%
%TO.N,/A2*%
X147425000Y-90825000D03*
D14*
%TO.P,J4,2,Pin_2*%
%TO.N,Net-(J1-Pin_2)*%
X144885000Y-90825000D03*
%TO.P,J4,3,Pin_3*%
%TO.N,GND*%
X142345000Y-90825000D03*
%TD*%
D13*
%TO.P,J5,1,Pin_1*%
%TO.N,3v3*%
X169400000Y-121980000D03*
D14*
%TO.P,J5,2,Pin_2*%
%TO.N,GND*%
X169400000Y-119440000D03*
%TO.P,J5,3,Pin_3*%
%TO.N,SCL*%
X169400000Y-116900000D03*
%TO.P,J5,4,Pin_4*%
%TO.N,SDA*%
X169400000Y-114360000D03*
%TO.P,J5,5,Pin_5*%
%TO.N,GND*%
X169400000Y-111820000D03*
%TO.P,J5,6,Pin_6*%
X169400000Y-109280000D03*
%TO.P,J5,7,Pin_7*%
%TO.N,/A0*%
X169400000Y-106740000D03*
%TO.P,J5,8,Pin_8*%
%TO.N,/A1*%
X169400000Y-104200000D03*
%TO.P,J5,9,Pin_9*%
%TO.N,/A2*%
X169400000Y-101660000D03*
%TO.P,J5,10,Pin_10*%
%TO.N,/A3*%
X169400000Y-99120000D03*
%TD*%
D12*
%TO.P,3v3,1,1*%
%TO.N,3v3*%
X142400000Y-73600000D03*
%TD*%
D10*
%TO.P,H1,1,1*%
%TO.N,GNDPWR*%
X129032000Y-73787000D03*
D11*
X129032000Y-73787000D03*
%TD*%
D13*
%TO.P,J6,1,Pin_1*%
%TO.N,/A3*%
X161125000Y-90875000D03*
D14*
%TO.P,J6,2,Pin_2*%
%TO.N,Net-(J1-Pin_2)*%
X158585000Y-90875000D03*
%TO.P,J6,3,Pin_3*%
%TO.N,GND*%
X156045000Y-90875000D03*
%TD*%
D13*
%TO.P,J2,1,Pin_1*%
%TO.N,Net-(J2-Pin_1)*%
X179190000Y-93500000D03*
D14*
%TO.P,J2,2,Pin_2*%
%TO.N,GND*%
X176650000Y-93500000D03*
%TO.P,J2,3,Pin_3*%
%TO.N,SCL*%
X174110000Y-93500000D03*
%TO.P,J2,4,Pin_4*%
%TO.N,SDA*%
X171570000Y-93500000D03*
%TD*%
D12*
%TO.P,SCL1,1,1*%
%TO.N,SCL*%
X143600000Y-130200000D03*
%TD*%
%TO.P,A2,1,1*%
%TO.N,/A2*%
X155200000Y-73600000D03*
%TD*%
%TO.P,A3,1,1*%
%TO.N,/A3*%
X167400000Y-73800000D03*
%TD*%
D10*
%TO.P,H2,1,1*%
%TO.N,GNDPWR*%
X178054000Y-73670000D03*
D11*
X178054000Y-73670000D03*
%TD*%
D10*
%TO.P,H4,1,1*%
%TO.N,GNDPWR*%
X178816000Y-130048000D03*
D11*
X178816000Y-130048000D03*
%TD*%
D15*
%TO.P,U1,1,GPIO1_A0_D0*%
%TO.N,D0*%
X133610000Y-116690000D03*
%TO.P,U1,2,GPIO2_A1_D1*%
%TO.N,D1*%
X136150000Y-116690000D03*
%TO.P,U1,3,GPIO3_A2_D2*%
%TO.N,D2*%
X138690000Y-116690000D03*
%TO.P,U1,4,GPIO4_A3_D3*%
%TO.N,/D3*%
X141230000Y-116690000D03*
%TO.P,U1,5,GPIO5_A4_D4_SDA*%
%TO.N,SDA*%
X143770000Y-116690000D03*
%TO.P,U1,6,GPIO6_A5_D5_SCL*%
%TO.N,SCL*%
X146310000Y-116690000D03*
%TO.P,U1,7,GPIO43_D6_TX*%
%TO.N,/D6*%
X148850000Y-116690000D03*
%TO.P,U1,8,GPIO44_D7_RX*%
%TO.N,/RX*%
X148850000Y-101450000D03*
%TO.P,U1,9,GPIO7_A8_D8_SCK*%
%TO.N,/SCK*%
X146310000Y-101450000D03*
%TO.P,U1,10,GPIO8_A9_D9_MISO*%
%TO.N,/MISO*%
X143770000Y-101450000D03*
%TO.P,U1,11,GPIO9_A10_D10_MOSI*%
%TO.N,/MOSI*%
X141230000Y-101450000D03*
%TO.P,U1,12,3V3*%
%TO.N,3v3*%
X138690000Y-101450000D03*
%TO.P,U1,13,GND*%
%TO.N,GND*%
X136150000Y-101450000D03*
%TO.P,U1,14,VBUS*%
%TO.N,5V*%
X133610000Y-101450000D03*
%TD*%
D12*
%TO.P,GND1,1,1*%
%TO.N,GND*%
X161800000Y-74000000D03*
%TD*%
D13*
%TO.P,J1,1,Pin_1*%
%TO.N,/A1*%
X133880000Y-90950000D03*
D14*
%TO.P,J1,2,Pin_2*%
%TO.N,Net-(J1-Pin_2)*%
X131340000Y-90950000D03*
%TO.P,J1,3,Pin_3*%
%TO.N,GND*%
X128800000Y-90950000D03*
%TD*%
D16*
%TO.N,GND*%
X129070000Y-123610000D03*
X163350000Y-110500000D03*
X162650000Y-97300000D03*
X160075170Y-103204021D03*
%TD*%
D17*
%TO.N,SDA*%
X152850000Y-127750000D02*
X167067100Y-127750000D01*
X150200000Y-130400000D02*
X152850000Y-127750000D01*
X167067100Y-127750000D02*
X170952000Y-123865100D01*
X170952000Y-123865100D02*
X170952000Y-115912000D01*
X170952000Y-115912000D02*
X169400000Y-114360000D01*
%TO.N,SCL*%
X167450000Y-126800000D02*
X170551000Y-123699000D01*
X143600000Y-130200000D02*
X147000000Y-126800000D01*
X170551000Y-118051000D02*
X169400000Y-116900000D01*
X147000000Y-126800000D02*
X167450000Y-126800000D01*
X170551000Y-123699000D02*
X170551000Y-118051000D01*
%TO.N,GNDPWR*%
X126150000Y-76669000D02*
X126150000Y-127547000D01*
X175334000Y-70950000D02*
X131869000Y-70950000D01*
X178816000Y-130048000D02*
X177064000Y-131800000D01*
X131869000Y-70950000D02*
X129032000Y-73787000D01*
X178054000Y-73670000D02*
X182550000Y-78166000D01*
X126150000Y-127547000D02*
X128778000Y-130175000D01*
X130403000Y-131800000D02*
X128778000Y-130175000D01*
X178054000Y-73670000D02*
X175334000Y-70950000D01*
X182550000Y-126314000D02*
X178816000Y-130048000D01*
X129032000Y-73787000D02*
X126150000Y-76669000D01*
X182550000Y-78166000D02*
X182550000Y-126314000D01*
%TO.N,/A1*%
X133900000Y-90950000D02*
X133900000Y-88500000D01*
X133900000Y-88500000D02*
X148800000Y-73600000D01*
%TO.N,GND*%
X136450000Y-96720000D02*
X142345000Y-90825000D01*
X169400000Y-119440000D02*
X163350000Y-113390000D01*
X136150000Y-96720000D02*
X136450000Y-96720000D01*
X169400000Y-111820000D02*
X168080000Y-110500000D01*
X160724000Y-79926000D02*
X140263000Y-100387000D01*
X168080000Y-110500000D02*
X163350000Y-110500000D01*
X163350000Y-113390000D02*
X163350000Y-110500000D01*
X139865000Y-100387000D02*
X137213000Y-100387000D01*
X172181000Y-97969000D02*
X163319000Y-97969000D01*
X140263000Y-100387000D02*
X139865000Y-100387000D01*
X128820000Y-90950000D02*
X136150000Y-98280000D01*
X156045000Y-90875000D02*
X149775000Y-90875000D01*
X161800000Y-74000000D02*
X161800000Y-78832900D01*
X136150000Y-96720000D02*
X136150000Y-101450000D01*
X149775000Y-90875000D02*
X148974000Y-91676000D01*
X160724000Y-79908900D02*
X160724000Y-79926000D01*
X136150000Y-98280000D02*
X136150000Y-101450000D01*
X169400000Y-109280000D02*
X168180000Y-110500000D01*
X163319000Y-97969000D02*
X162650000Y-97300000D01*
X168180000Y-110500000D02*
X163350000Y-110500000D01*
X176650000Y-93500000D02*
X172181000Y-97969000D01*
X137213000Y-100387000D02*
X136150000Y-101450000D01*
X161800000Y-78832900D02*
X160724000Y-79908900D01*
%TO.N,/A2*%
X147075000Y-81725000D02*
X155200000Y-73600000D01*
X147075000Y-90875000D02*
X147075000Y-81725000D01*
%TO.N,/A3*%
X167400000Y-73800000D02*
X161125000Y-80075000D01*
X161125000Y-80075000D02*
X161125000Y-90875000D01*
%TD*%
%TA.AperFunction,Conductor*%
%TO.N,GND*%
G36*
X167385135Y-92729437D02*
G01*
X167452170Y-92749133D01*
X167497916Y-92801944D01*
X167509113Y-92853410D01*
X167512580Y-108569916D01*
X167514630Y-117860006D01*
X167516214Y-125035973D01*
X167496544Y-125103016D01*
X167443750Y-125148783D01*
X167392214Y-125160000D01*
X126874500Y-125160000D01*
X126807461Y-125140315D01*
X126761706Y-125087511D01*
X126750500Y-125036000D01*
X126750500Y-116590639D01*
X132347500Y-116590639D01*
X132347500Y-116789360D01*
X132378587Y-116985637D01*
X132439993Y-117174629D01*
X132439994Y-117174632D01*
X132530213Y-117351694D01*
X132647019Y-117512464D01*
X132787536Y-117652981D01*
X132948306Y-117769787D01*
X133035149Y-117814035D01*
X133125367Y-117860005D01*
X133125370Y-117860006D01*
X133219866Y-117890709D01*
X133314364Y-117921413D01*
X133510639Y-117952500D01*
X133510640Y-117952500D01*
X133709360Y-117952500D01*
X133709361Y-117952500D01*
X133905636Y-117921413D01*
X134094632Y-117860005D01*
X134271694Y-117769787D01*
X134432464Y-117652981D01*
X134572981Y-117512464D01*
X134689787Y-117351694D01*
X134769515Y-117195218D01*
X134817490Y-117144423D01*
X134885311Y-117127628D01*
X134951446Y-117150165D01*
X134990484Y-117195218D01*
X135070213Y-117351694D01*
X135187019Y-117512464D01*
X135327536Y-117652981D01*
X135488306Y-117769787D01*
X135575149Y-117814035D01*
X135665367Y-117860005D01*
X135665370Y-117860006D01*
X135759866Y-117890709D01*
X135854364Y-117921413D01*
X136050639Y-117952500D01*
X136050640Y-117952500D01*
X136249360Y-117952500D01*
X136249361Y-117952500D01*
X136445636Y-117921413D01*
X136634632Y-117860005D01*
X136811694Y-117769787D01*
X136972464Y-117652981D01*
X137112981Y-117512464D01*
X137229787Y-117351694D01*
X137309515Y-117195218D01*
X137357490Y-117144423D01*
X137425311Y-117127628D01*
X137491446Y-117150165D01*
X137530484Y-117195218D01*
X137610213Y-117351694D01*
X137727019Y-117512464D01*
X137867536Y-117652981D01*
X138028306Y-117769787D01*
X138115149Y-117814035D01*
X138205367Y-117860005D01*
X138205370Y-117860006D01*
X138299866Y-117890709D01*
X138394364Y-117921413D01*
X138590639Y-117952500D01*
X138590640Y-117952500D01*
X138789360Y-117952500D01*
X138789361Y-117952500D01*
X138985636Y-117921413D01*
X139174632Y-117860005D01*
X139351694Y-117769787D01*
X139512464Y-117652981D01*
X139652981Y-117512464D01*
X139769787Y-117351694D01*
X139849515Y-117195218D01*
X139897490Y-117144423D01*
X139965311Y-117127628D01*
X140031446Y-117150165D01*
X140070484Y-117195218D01*
X140150213Y-117351694D01*
X140267019Y-117512464D01*
X140407536Y-117652981D01*
X140568306Y-117769787D01*
X140655149Y-117814035D01*
X140745367Y-117860005D01*
X140745370Y-117860006D01*
X140839866Y-117890709D01*
X140934364Y-117921413D01*
X141130639Y-117952500D01*
X141130640Y-117952500D01*
X141329360Y-117952500D01*
X141329361Y-117952500D01*
X141525636Y-117921413D01*
X141714632Y-117860005D01*
X141891694Y-117769787D01*
X142052464Y-117652981D01*
X142192981Y-117512464D01*
X142309787Y-117351694D01*
X142389515Y-117195218D01*
X142437490Y-117144423D01*
X142505311Y-117127628D01*
X142571446Y-117150165D01*
X142610484Y-117195218D01*
X142690213Y-117351694D01*
X142807019Y-117512464D01*
X142947536Y-117652981D01*
X143108306Y-117769787D01*
X143195149Y-117814035D01*
X143285367Y-117860005D01*
X143285370Y-117860006D01*
X143379866Y-117890709D01*
X143474364Y-117921413D01*
X143670639Y-117952500D01*
X143670640Y-117952500D01*
X143869360Y-117952500D01*
X143869361Y-117952500D01*
X144065636Y-117921413D01*
X144254632Y-117860005D01*
X144431694Y-117769787D01*
X144592464Y-117652981D01*
X144732981Y-117512464D01*
X144849787Y-117351694D01*
X144929515Y-117195218D01*
X144977490Y-117144423D01*
X145045311Y-117127628D01*
X145111446Y-117150165D01*
X145150484Y-117195218D01*
X145230213Y-117351694D01*
X145347019Y-117512464D01*
X145487536Y-117652981D01*
X145648306Y-117769787D01*
X145735149Y-117814035D01*
X145825367Y-117860005D01*
X145825370Y-117860006D01*
X145919866Y-117890709D01*
X146014364Y-117921413D01*
X146210639Y-117952500D01*
X146210640Y-117952500D01*
X146409360Y-117952500D01*
X146409361Y-117952500D01*
X146605636Y-117921413D01*
X146794632Y-117860005D01*
X146971694Y-117769787D01*
X147132464Y-117652981D01*
X147272981Y-117512464D01*
X147389787Y-117351694D01*
X147469515Y-117195218D01*
X147517490Y-117144423D01*
X147585311Y-117127628D01*
X147651446Y-117150165D01*
X147690484Y-117195218D01*
X147770213Y-117351694D01*
X147887019Y-117512464D01*
X148027536Y-117652981D01*
X148188306Y-117769787D01*
X148275149Y-117814035D01*
X148365367Y-117860005D01*
X148365370Y-117860006D01*
X148459866Y-117890709D01*
X148554364Y-117921413D01*
X148750639Y-117952500D01*
X148750640Y-117952500D01*
X148949360Y-117952500D01*
X148949361Y-117952500D01*
X149145636Y-117921413D01*
X149334632Y-117860005D01*
X149511694Y-117769787D01*
X149672464Y-117652981D01*
X149812981Y-117512464D01*
X149929787Y-117351694D01*
X150020005Y-117174632D01*
X150081413Y-116985636D01*
X150112500Y-116789361D01*
X150112500Y-116590639D01*
X150081413Y-116394364D01*
X150020005Y-116205368D01*
X150020005Y-116205367D01*
X149929786Y-116028305D01*
X149812981Y-115867536D01*
X149672464Y-115727019D01*
X149511694Y-115610213D01*
X149334632Y-115519994D01*
X149334629Y-115519993D01*
X149145637Y-115458587D01*
X149047498Y-115443043D01*
X148949361Y-115427500D01*
X148750639Y-115427500D01*
X148685214Y-115437862D01*
X148554362Y-115458587D01*
X148365370Y-115519993D01*
X148365367Y-115519994D01*
X148188305Y-115610213D01*
X148027533Y-115727021D01*
X147887021Y-115867533D01*
X147770213Y-116028305D01*
X147690485Y-116184780D01*
X147642510Y-116235576D01*
X147574689Y-116252371D01*
X147508554Y-116229833D01*
X147469515Y-116184780D01*
X147389786Y-116028305D01*
X147272981Y-115867536D01*
X147132464Y-115727019D01*
X146971694Y-115610213D01*
X146794632Y-115519994D01*
X146794629Y-115519993D01*
X146605637Y-115458587D01*
X146507498Y-115443043D01*
X146409361Y-115427500D01*
X146210639Y-115427500D01*
X146145214Y-115437862D01*
X146014362Y-115458587D01*
X145825370Y-115519993D01*
X145825367Y-115519994D01*
X145648305Y-115610213D01*
X145487533Y-115727021D01*
X145347021Y-115867533D01*
X145230213Y-116028305D01*
X145150485Y-116184780D01*
X145102510Y-116235576D01*
X145034689Y-116252371D01*
X144968554Y-116229833D01*
X144929515Y-116184780D01*
X144849786Y-116028305D01*
X144732981Y-115867536D01*
X144592464Y-115727019D01*
X144431694Y-115610213D01*
X144254632Y-115519994D01*
X144254629Y-115519993D01*
X144065637Y-115458587D01*
X143967498Y-115443043D01*
X143869361Y-115427500D01*
X143670639Y-115427500D01*
X143605214Y-115437862D01*
X143474362Y-115458587D01*
X143285370Y-115519993D01*
X143285367Y-115519994D01*
X143108305Y-115610213D01*
X142947533Y-115727021D01*
X142807021Y-115867533D01*
X142690213Y-116028305D01*
X142610485Y-116184780D01*
X142562510Y-116235576D01*
X142494689Y-116252371D01*
X142428554Y-116229833D01*
X142389515Y-116184780D01*
X142309786Y-116028305D01*
X142192981Y-115867536D01*
X142052464Y-115727019D01*
X141891694Y-115610213D01*
X141714632Y-115519994D01*
X141714629Y-115519993D01*
X141525637Y-115458587D01*
X141427498Y-115443043D01*
X141329361Y-115427500D01*
X141130639Y-115427500D01*
X141065214Y-115437862D01*
X140934362Y-115458587D01*
X140745370Y-115519993D01*
X140745367Y-115519994D01*
X140568305Y-115610213D01*
X140407533Y-115727021D01*
X140267021Y-115867533D01*
X140150213Y-116028305D01*
X140070485Y-116184780D01*
X140022510Y-116235576D01*
X139954689Y-116252371D01*
X139888554Y-116229833D01*
X139849515Y-116184780D01*
X139769786Y-116028305D01*
X139652981Y-115867536D01*
X139512464Y-115727019D01*
X139351694Y-115610213D01*
X139174632Y-115519994D01*
X139174629Y-115519993D01*
X138985637Y-115458587D01*
X138887498Y-115443043D01*
X138789361Y-115427500D01*
X138590639Y-115427500D01*
X138525214Y-115437862D01*
X138394362Y-115458587D01*
X138205370Y-115519993D01*
X138205367Y-115519994D01*
X138028305Y-115610213D01*
X137867533Y-115727021D01*
X137727021Y-115867533D01*
X137610213Y-116028305D01*
X137530485Y-116184780D01*
X137482510Y-116235576D01*
X137414689Y-116252371D01*
X137348554Y-116229833D01*
X137309515Y-116184780D01*
X137229786Y-116028305D01*
X137112981Y-115867536D01*
X136972464Y-115727019D01*
X136811694Y-115610213D01*
X136634632Y-115519994D01*
X136634629Y-115519993D01*
X136445637Y-115458587D01*
X136347498Y-115443043D01*
X136249361Y-115427500D01*
X136050639Y-115427500D01*
X135985214Y-115437862D01*
X135854362Y-115458587D01*
X135665370Y-115519993D01*
X135665367Y-115519994D01*
X135488305Y-115610213D01*
X135327533Y-115727021D01*
X135187021Y-115867533D01*
X135070213Y-116028305D01*
X134990485Y-116184780D01*
X134942510Y-116235576D01*
X134874689Y-116252371D01*
X134808554Y-116229833D01*
X134769515Y-116184780D01*
X134689786Y-116028305D01*
X134572981Y-115867536D01*
X134432464Y-115727019D01*
X134271694Y-115610213D01*
X134094632Y-115519994D01*
X134094629Y-115519993D01*
X133905637Y-115458587D01*
X133807498Y-115443043D01*
X133709361Y-115427500D01*
X133510639Y-115427500D01*
X133445214Y-115437862D01*
X133314362Y-115458587D01*
X133125370Y-115519993D01*
X133125367Y-115519994D01*
X132948305Y-115610213D01*
X132787533Y-115727021D01*
X132647021Y-115867533D01*
X132530213Y-116028305D01*
X132439994Y-116205367D01*
X132439993Y-116205370D01*
X132378587Y-116394362D01*
X132347500Y-116590639D01*
X126750500Y-116590639D01*
X126750500Y-101350639D01*
X132347500Y-101350639D01*
X132347500Y-101549360D01*
X132378587Y-101745637D01*
X132439993Y-101934629D01*
X132439994Y-101934632D01*
X132530074Y-102111422D01*
X132530213Y-102111694D01*
X132647019Y-102272464D01*
X132787536Y-102412981D01*
X132948306Y-102529787D01*
X133035149Y-102574035D01*
X133125367Y-102620005D01*
X133125370Y-102620006D01*
X133219866Y-102650709D01*
X133314364Y-102681413D01*
X133510639Y-102712500D01*
X133510640Y-102712500D01*
X133709360Y-102712500D01*
X133709361Y-102712500D01*
X133905636Y-102681413D01*
X134094632Y-102620005D01*
X134271694Y-102529787D01*
X134432464Y-102412981D01*
X134572981Y-102272464D01*
X134689787Y-102111694D01*
X134769796Y-101954667D01*
X134817769Y-101903872D01*
X134885590Y-101887077D01*
X134951725Y-101909614D01*
X134990765Y-101954668D01*
X135070641Y-102111432D01*
X135097730Y-102148715D01*
X135097731Y-102148716D01*
X135712352Y-101534094D01*
X135735792Y-101621571D01*
X135794311Y-101722930D01*
X135877070Y-101805689D01*
X135978429Y-101864208D01*
X136065905Y-101887647D01*
X135451283Y-102502268D01*
X135451283Y-102502269D01*
X135488567Y-102529358D01*
X135665562Y-102619542D01*
X135854477Y-102680924D01*
X136050679Y-102712000D01*
X136249321Y-102712000D01*
X136445520Y-102680924D01*
X136445523Y-102680924D01*
X136634437Y-102619542D01*
X136811425Y-102529362D01*
X136848716Y-102502268D01*
X136234095Y-101887647D01*
X136321571Y-101864208D01*
X136422930Y-101805689D01*
X136505689Y-101722930D01*
X136564208Y-101621571D01*
X136587647Y-101534094D01*
X137202268Y-102148715D01*
X137229364Y-102111422D01*
X137309234Y-101954669D01*
X137357208Y-101903872D01*
X137425029Y-101887077D01*
X137491164Y-101909614D01*
X137530203Y-101954667D01*
X137610213Y-102111694D01*
X137727019Y-102272464D01*
X137867536Y-102412981D01*
X138028306Y-102529787D01*
X138115149Y-102574035D01*
X138205367Y-102620005D01*
X138205370Y-102620006D01*
X138299866Y-102650709D01*
X138394364Y-102681413D01*
X138590639Y-102712500D01*
X138590640Y-102712500D01*
X138789360Y-102712500D01*
X138789361Y-102712500D01*
X138985636Y-102681413D01*
X139174632Y-102620005D01*
X139351694Y-102529787D01*
X139512464Y-102412981D01*
X139652981Y-102272464D01*
X139769787Y-102111694D01*
X139849515Y-101955218D01*
X139897490Y-101904423D01*
X139965311Y-101887628D01*
X140031446Y-101910165D01*
X140070484Y-101955218D01*
X140150213Y-102111694D01*
X140267019Y-102272464D01*
X140407536Y-102412981D01*
X140568306Y-102529787D01*
X140655149Y-102574035D01*
X140745367Y-102620005D01*
X140745370Y-102620006D01*
X140839866Y-102650709D01*
X140934364Y-102681413D01*
X141130639Y-102712500D01*
X141130640Y-102712500D01*
X141329360Y-102712500D01*
X141329361Y-102712500D01*
X141525636Y-102681413D01*
X141714632Y-102620005D01*
X141891694Y-102529787D01*
X142052464Y-102412981D01*
X142192981Y-102272464D01*
X142309787Y-102111694D01*
X142389515Y-101955218D01*
X142437490Y-101904423D01*
X142505311Y-101887628D01*
X142571446Y-101910165D01*
X142610484Y-101955218D01*
X142690213Y-102111694D01*
X142807019Y-102272464D01*
X142947536Y-102412981D01*
X143108306Y-102529787D01*
X143195149Y-102574035D01*
X143285367Y-102620005D01*
X143285370Y-102620006D01*
X143379866Y-102650709D01*
X143474364Y-102681413D01*
X143670639Y-102712500D01*
X143670640Y-102712500D01*
X143869360Y-102712500D01*
X143869361Y-102712500D01*
X144065636Y-102681413D01*
X144254632Y-102620005D01*
X144431694Y-102529787D01*
X144592464Y-102412981D01*
X144732981Y-102272464D01*
X144849787Y-102111694D01*
X144929515Y-101955218D01*
X144977490Y-101904423D01*
X145045311Y-101887628D01*
X145111446Y-101910165D01*
X145150484Y-101955218D01*
X145230213Y-102111694D01*
X145347019Y-102272464D01*
X145487536Y-102412981D01*
X145648306Y-102529787D01*
X145735149Y-102574035D01*
X145825367Y-102620005D01*
X145825370Y-102620006D01*
X145919866Y-102650709D01*
X146014364Y-102681413D01*
X146210639Y-102712500D01*
X146210640Y-102712500D01*
X146409360Y-102712500D01*
X146409361Y-102712500D01*
X146605636Y-102681413D01*
X146794632Y-102620005D01*
X146971694Y-102529787D01*
X147132464Y-102412981D01*
X147272981Y-102272464D01*
X147389787Y-102111694D01*
X147469515Y-101955218D01*
X147517490Y-101904423D01*
X147585311Y-101887628D01*
X147651446Y-101910165D01*
X147690484Y-101955218D01*
X147770213Y-102111694D01*
X147887019Y-102272464D01*
X148027536Y-102412981D01*
X148188306Y-102529787D01*
X148275149Y-102574035D01*
X148365367Y-102620005D01*
X148365370Y-102620006D01*
X148459866Y-102650709D01*
X148554364Y-102681413D01*
X148750639Y-102712500D01*
X148750640Y-102712500D01*
X148949360Y-102712500D01*
X148949361Y-102712500D01*
X149145636Y-102681413D01*
X149334632Y-102620005D01*
X149511694Y-102529787D01*
X149672464Y-102412981D01*
X149812981Y-102272464D01*
X149929787Y-102111694D01*
X150020005Y-101934632D01*
X150081413Y-101745636D01*
X150112500Y-101549361D01*
X150112500Y-101350639D01*
X150081413Y-101154364D01*
X150020005Y-100965368D01*
X150020005Y-100965367D01*
X149974035Y-100875149D01*
X149929787Y-100788306D01*
X149812981Y-100627536D01*
X149672464Y-100487019D01*
X149511694Y-100370213D01*
X149334632Y-100279994D01*
X149334629Y-100279993D01*
X149145637Y-100218587D01*
X149047498Y-100203043D01*
X148949361Y-100187500D01*
X148750639Y-100187500D01*
X148685214Y-100197862D01*
X148554362Y-100218587D01*
X148365370Y-100279993D01*
X148365367Y-100279994D01*
X148188305Y-100370213D01*
X148027533Y-100487021D01*
X147887021Y-100627533D01*
X147770213Y-100788305D01*
X147690485Y-100944780D01*
X147642510Y-100995576D01*
X147574689Y-101012371D01*
X147508554Y-100989833D01*
X147469515Y-100944780D01*
X147450179Y-100906832D01*
X147389787Y-100788306D01*
X147272981Y-100627536D01*
X147132464Y-100487019D01*
X146971694Y-100370213D01*
X146794632Y-100279994D01*
X146794629Y-100279993D01*
X146605637Y-100218587D01*
X146507498Y-100203043D01*
X146409361Y-100187500D01*
X146210639Y-100187500D01*
X146145214Y-100197862D01*
X146014362Y-100218587D01*
X145825370Y-100279993D01*
X145825367Y-100279994D01*
X145648305Y-100370213D01*
X145487533Y-100487021D01*
X145347021Y-100627533D01*
X145230213Y-100788305D01*
X145150485Y-100944780D01*
X145102510Y-100995576D01*
X145034689Y-101012371D01*
X144968554Y-100989833D01*
X144929515Y-100944780D01*
X144910179Y-100906832D01*
X144849787Y-100788306D01*
X144732981Y-100627536D01*
X144592464Y-100487019D01*
X144431694Y-100370213D01*
X144254632Y-100279994D01*
X144254629Y-100279993D01*
X144065637Y-100218587D01*
X143967498Y-100203043D01*
X143869361Y-100187500D01*
X143670639Y-100187500D01*
X143605214Y-100197862D01*
X143474362Y-100218587D01*
X143285370Y-100279993D01*
X143285367Y-100279994D01*
X143108305Y-100370213D01*
X142947533Y-100487021D01*
X142807021Y-100627533D01*
X142690213Y-100788305D01*
X142610485Y-100944780D01*
X142562510Y-100995576D01*
X142494689Y-101012371D01*
X142428554Y-100989833D01*
X142389515Y-100944780D01*
X142370179Y-100906832D01*
X142309787Y-100788306D01*
X142192981Y-100627536D01*
X142052464Y-100487019D01*
X141891694Y-100370213D01*
X141714632Y-100279994D01*
X141714629Y-100279993D01*
X141525637Y-100218587D01*
X141427498Y-100203043D01*
X141329361Y-100187500D01*
X141130639Y-100187500D01*
X141065214Y-100197862D01*
X140934362Y-100218587D01*
X140745370Y-100279993D01*
X140745367Y-100279994D01*
X140568305Y-100370213D01*
X140407533Y-100487021D01*
X140267021Y-100627533D01*
X140150213Y-100788305D01*
X140070485Y-100944780D01*
X140022510Y-100995576D01*
X139954689Y-101012371D01*
X139888554Y-100989833D01*
X139849515Y-100944780D01*
X139830179Y-100906832D01*
X139769787Y-100788306D01*
X139652981Y-100627536D01*
X139512464Y-100487019D01*
X139351694Y-100370213D01*
X139174632Y-100279994D01*
X139174629Y-100279993D01*
X138985637Y-100218587D01*
X138887498Y-100203043D01*
X138789361Y-100187500D01*
X138590639Y-100187500D01*
X138525214Y-100197862D01*
X138394362Y-100218587D01*
X138205370Y-100279993D01*
X138205367Y-100279994D01*
X138028305Y-100370213D01*
X137867533Y-100487021D01*
X137727021Y-100627533D01*
X137610213Y-100788305D01*
X137530204Y-100945331D01*
X137482229Y-100996127D01*
X137414408Y-101012922D01*
X137348273Y-100990384D01*
X137309234Y-100945331D01*
X137229358Y-100788567D01*
X137202268Y-100751283D01*
X136587647Y-101365904D01*
X136564208Y-101278429D01*
X136505689Y-101177070D01*
X136422930Y-101094311D01*
X136321571Y-101035792D01*
X136234094Y-101012352D01*
X136848716Y-100397731D01*
X136848715Y-100397730D01*
X136811432Y-100370641D01*
X136634437Y-100280457D01*
X136445522Y-100219075D01*
X136249321Y-100188000D01*
X136050679Y-100188000D01*
X135854479Y-100219075D01*
X135854476Y-100219075D01*
X135665562Y-100280457D01*
X135488564Y-100370643D01*
X135451283Y-100397729D01*
X135451282Y-100397730D01*
X136065906Y-101012352D01*
X135978429Y-101035792D01*
X135877070Y-101094311D01*
X135794311Y-101177070D01*
X135735792Y-101278429D01*
X135712352Y-101365905D01*
X135097730Y-100751282D01*
X135097729Y-100751283D01*
X135070641Y-100788566D01*
X134990764Y-100945332D01*
X134942790Y-100996127D01*
X134874969Y-101012922D01*
X134808834Y-100990384D01*
X134769796Y-100945332D01*
X134689787Y-100788306D01*
X134572981Y-100627536D01*
X134432464Y-100487019D01*
X134271694Y-100370213D01*
X134094632Y-100279994D01*
X134094629Y-100279993D01*
X133905637Y-100218587D01*
X133807498Y-100203043D01*
X133709361Y-100187500D01*
X133510639Y-100187500D01*
X133445214Y-100197862D01*
X133314362Y-100218587D01*
X133125370Y-100279993D01*
X133125367Y-100279994D01*
X132948305Y-100370213D01*
X132787533Y-100487021D01*
X132647021Y-100627533D01*
X132530213Y-100788305D01*
X132439994Y-100965367D01*
X132439993Y-100965370D01*
X132378587Y-101154362D01*
X132347500Y-101350639D01*
X126750500Y-101350639D01*
X126750500Y-92846682D01*
X126770185Y-92779643D01*
X126822989Y-92733888D01*
X126874515Y-92722683D01*
X167385135Y-92729437D01*
G37*
%TD.AperFunction*%
%TD*%
M02*
