%TF.GenerationSoftware,KiCad,Pcbnew,9.0.2*%
%TF.CreationDate,2026-06-10T17:29:41-04:00*%
%TF.ProjectId,FoodSpoilDetection,466f6f64-5370-46f6-996c-446574656374,rev?*%
%TF.SameCoordinates,Original*%
%TF.FileFunction,Soldermask,Top*%
%TF.FilePolarity,Negative*%
%FSLAX46Y46*%
G04 Gerber Fmt 4.6, Leading zero omitted, Abs format (unit mm)*
G04 Created by KiCad (PCBNEW 9.0.2) date 2026-06-10 17:29:41*
%MOMM*%
%LPD*%
G01*
G04 APERTURE LIST*
G04 Aperture macros list*
%AMRoundRect*
0 Rectangle with rounded corners*
0 $1 Rounding radius*
0 $2 $3 $4 $5 $6 $7 $8 $9 X,Y pos of 4 corners*
0 Add a 4 corners polygon primitive as box body*
4,1,4,$2,$3,$4,$5,$6,$7,$8,$9,$2,$3,0*
0 Add four circle primitives for the rounded corners*
1,1,$1+$1,$2,$3*
1,1,$1+$1,$4,$5*
1,1,$1+$1,$6,$7*
1,1,$1+$1,$8,$9*
0 Add four rect primitives between the rounded corners*
20,1,$1+$1,$2,$3,$4,$5,0*
20,1,$1+$1,$4,$5,$6,$7,0*
20,1,$1+$1,$6,$7,$8,$9,0*
20,1,$1+$1,$8,$9,$2,$3,0*%
G04 Aperture macros list end*
%ADD10C,1.700000*%
%ADD11R,1.700000X1.700000*%
%ADD12RoundRect,0.237500X-0.250000X-0.237500X0.250000X-0.237500X0.250000X0.237500X-0.250000X0.237500X0*%
%ADD13RoundRect,0.237500X0.237500X-0.250000X0.237500X0.250000X-0.237500X0.250000X-0.237500X-0.250000X0*%
%ADD14R,0.558800X1.320800*%
%ADD15RoundRect,0.218750X-0.218750X-0.256250X0.218750X-0.256250X0.218750X0.256250X-0.218750X0.256250X0*%
%ADD16RoundRect,0.218750X0.026517X-0.335876X0.335876X-0.026517X-0.026517X0.335876X-0.335876X0.026517X0*%
%ADD17C,3.600000*%
%ADD18C,6.400000*%
%ADD19RoundRect,0.218750X0.256250X-0.218750X0.256250X0.218750X-0.256250X0.218750X-0.256250X-0.218750X0*%
%ADD20C,2.000000*%
%ADD21C,3.000000*%
%ADD22RoundRect,0.218750X0.218750X0.256250X-0.218750X0.256250X-0.218750X-0.256250X0.218750X-0.256250X0*%
%ADD23RoundRect,0.237500X0.250000X0.237500X-0.250000X0.237500X-0.250000X-0.237500X0.250000X-0.237500X0*%
%ADD24RoundRect,0.218750X-0.335876X-0.026517X-0.026517X-0.335876X0.335876X0.026517X0.026517X0.335876X0*%
%ADD25RoundRect,0.237500X-0.008839X-0.344715X0.344715X0.008839X0.008839X0.344715X-0.344715X-0.008839X0*%
%ADD26RoundRect,0.150000X0.150000X-0.587500X0.150000X0.587500X-0.150000X0.587500X-0.150000X-0.587500X0*%
%ADD27RoundRect,0.237500X-0.344715X0.008839X0.008839X-0.344715X0.344715X-0.008839X-0.008839X0.344715X0*%
%ADD28O,2.200000X3.500000*%
%ADD29R,1.500000X2.500000*%
%ADD30O,1.500000X2.500000*%
%ADD31RoundRect,0.218750X0.335876X0.026517X0.026517X0.335876X-0.335876X-0.026517X-0.026517X-0.335876X0*%
%ADD32RoundRect,0.152400X-0.609600X1.063600X-0.609600X-1.063600X0.609600X-1.063600X0.609600X1.063600X0*%
%ADD33C,1.524000*%
%ADD34RoundRect,0.152400X0.609600X-1.063600X0.609600X1.063600X-0.609600X1.063600X-0.609600X-1.063600X0*%
%ADD35RoundRect,0.237500X0.344715X-0.008839X-0.008839X0.344715X-0.344715X0.008839X0.008839X-0.344715X0*%
G04 APERTURE END LIST*
D10*
%TO.C,J2*%
X166280000Y-99300000D03*
X168820000Y-99300000D03*
X171360000Y-99300000D03*
D11*
X173900000Y-99300000D03*
%TD*%
D12*
%TO.C,R10*%
X136355000Y-128330000D03*
X138180000Y-128330000D03*
%TD*%
D13*
%TO.C,R2*%
X151430000Y-116455000D03*
X151430000Y-114630000D03*
%TD*%
D14*
%TO.C,Q3*%
X154040000Y-105373800D03*
X155945000Y-105373800D03*
X154992500Y-102986200D03*
%TD*%
D13*
%TO.C,R6*%
X123280000Y-122030000D03*
X123280000Y-120205000D03*
%TD*%
D15*
%TO.C,D8*%
X136205000Y-129980000D03*
X137780000Y-129980000D03*
%TD*%
D16*
%TO.C,D5*%
X124823153Y-106086847D03*
X125936847Y-104973153D03*
%TD*%
D17*
%TO.C,H3*%
X125080000Y-134920000D03*
D18*
X125080000Y-134920000D03*
%TD*%
D19*
%TO.C,D6*%
X122080000Y-116267500D03*
X122080000Y-114692500D03*
%TD*%
D20*
%TO.C,A1*%
X144780000Y-79930000D03*
%TD*%
D21*
%TO.C,FID3*%
X169840000Y-137460000D03*
%TD*%
D20*
%TO.C,SDA1*%
X137800000Y-137600000D03*
%TD*%
D22*
%TO.C,D4*%
X138027592Y-100530000D03*
X136452592Y-100530000D03*
%TD*%
D11*
%TO.C,J4*%
X143405000Y-97155000D03*
D10*
X140865000Y-97155000D03*
X138325000Y-97155000D03*
%TD*%
D14*
%TO.C,Q1*%
X158165000Y-109773800D03*
X160070000Y-109773800D03*
X159117500Y-107386200D03*
%TD*%
D11*
%TO.C,J5*%
X165380000Y-128310000D03*
D10*
X165380000Y-125770000D03*
X165380000Y-123230000D03*
X165380000Y-120690000D03*
X165380000Y-118150000D03*
X165380000Y-115610000D03*
X165380000Y-113070000D03*
X165380000Y-110530000D03*
X165380000Y-107990000D03*
X165380000Y-105450000D03*
%TD*%
D23*
%TO.C,R9*%
X122930000Y-124130000D03*
X121105000Y-124130000D03*
%TD*%
D20*
%TO.C,3v1*%
X138380000Y-79930000D03*
%TD*%
D24*
%TO.C,D3*%
X148373153Y-105323153D03*
X149486847Y-106436847D03*
%TD*%
D17*
%TO.C,H1*%
X125080000Y-80080000D03*
D18*
X125080000Y-80080000D03*
%TD*%
D25*
%TO.C,R5*%
X123534765Y-105025235D03*
X124825235Y-103734765D03*
%TD*%
D12*
%TO.C,R7*%
X157987500Y-111850000D03*
X159812500Y-111850000D03*
%TD*%
D11*
%TO.C,J8*%
X153900000Y-136035000D03*
D10*
X153900000Y-138575000D03*
%TD*%
D11*
%TO.C,J6*%
X157105000Y-97205000D03*
D10*
X154565000Y-97205000D03*
X152025000Y-97205000D03*
%TD*%
D23*
%TO.C,R4*%
X138242500Y-102079999D03*
X136417500Y-102080001D03*
%TD*%
D16*
%TO.C,D1*%
X148323153Y-127436847D03*
X149436847Y-126323153D03*
%TD*%
D26*
%TO.C,Q2*%
X121430000Y-129980000D03*
X123330000Y-129980000D03*
X122380000Y-128105000D03*
%TD*%
D20*
%TO.C,SCL1*%
X134000000Y-137650000D03*
%TD*%
%TO.C,A2*%
X151180000Y-79930000D03*
%TD*%
D11*
%TO.C,J7*%
X149500000Y-138575000D03*
D10*
X149500000Y-136035000D03*
%TD*%
D27*
%TO.C,R3*%
X149834765Y-104434765D03*
X151125235Y-105725235D03*
%TD*%
D21*
%TO.C,FID2*%
X130160000Y-77540000D03*
%TD*%
D28*
%TO.C,SW1*%
X157950000Y-137000000D03*
X166150000Y-137000000D03*
D29*
X160050000Y-137000000D03*
D30*
X162050000Y-137000000D03*
X164050000Y-137000000D03*
%TD*%
D20*
%TO.C,A3*%
X163380000Y-80130000D03*
%TD*%
D31*
%TO.C,D7*%
X126536847Y-127786847D03*
X125423153Y-126673153D03*
%TD*%
D17*
%TO.C,H2*%
X174920000Y-80080000D03*
D18*
X174920000Y-80080000D03*
%TD*%
D17*
%TO.C,H4*%
X174920000Y-134920000D03*
D18*
X174920000Y-134920000D03*
%TD*%
D21*
%TO.C,FID1*%
X130160000Y-137460000D03*
%TD*%
D19*
%TO.C,D2*%
X153030000Y-116217500D03*
X153030000Y-114642500D03*
%TD*%
D32*
%TO.C,U1*%
X129590000Y-123855000D03*
D33*
X129590000Y-123020000D03*
D32*
X132130000Y-123855000D03*
D33*
X132130000Y-123020000D03*
D32*
X134670000Y-123855000D03*
D33*
X134670000Y-123020000D03*
D32*
X137210000Y-123855000D03*
D33*
X137210000Y-123020000D03*
D32*
X139750000Y-123855000D03*
D33*
X139750000Y-123020000D03*
D32*
X142290000Y-123855000D03*
D33*
X142290000Y-123020000D03*
D32*
X144830000Y-123855000D03*
D33*
X144830000Y-123020000D03*
X144830000Y-107780000D03*
D34*
X144830000Y-106945000D03*
D33*
X142290000Y-107780000D03*
D34*
X142290000Y-106945000D03*
D33*
X139750000Y-107780000D03*
D34*
X139750000Y-106945000D03*
D33*
X137210000Y-107780000D03*
D34*
X137210000Y-106945000D03*
D33*
X134670000Y-107780000D03*
D34*
X134670000Y-106945000D03*
D33*
X132130000Y-107780000D03*
D34*
X132130000Y-106945000D03*
D33*
X129590000Y-107780000D03*
D34*
X129590000Y-106945000D03*
%TD*%
D35*
%TO.C,R8*%
X128625235Y-127275235D03*
X127334765Y-125984765D03*
%TD*%
D20*
%TO.C,GND1*%
X157780000Y-80330000D03*
%TD*%
D12*
%TO.C,R11*%
X153505000Y-100580000D03*
X155330000Y-100580000D03*
%TD*%
D25*
%TO.C,R1*%
X146984765Y-126475235D03*
X148275235Y-125184765D03*
%TD*%
D20*
%TO.C,BATTERY+1*%
X141550000Y-137650000D03*
%TD*%
D11*
%TO.C,J1*%
X129860000Y-97280000D03*
D10*
X127320000Y-97280000D03*
X124780000Y-97280000D03*
%TD*%
D20*
%TO.C,BAT_SW1*%
X145400000Y-137750000D03*
%TD*%
D11*
%TO.C,J3*%
X177200000Y-88330000D03*
D10*
X174660000Y-88330000D03*
X172120000Y-88330000D03*
X169580000Y-88330000D03*
X167040000Y-88330000D03*
X164500000Y-88330000D03*
%TD*%
M02*
